<svg xmlns="http://www.w3.org/2000/svg" viewBox="0 0 800 600" fill="none">
<!-- m1_matriz_composicion (animación): todos los grupos son hijos directos de la raíz y no hay formas sueltas. Grupos: fragmento_hueso, fibrilla_colageno, zonas_hueco, cristales_hidroxiapatita, proteinas_no_colagenas, fuerza_traccion, fuerza_compresion. -->
<title>Composición de la matriz ósea</title>
<desc>Esquema sin escala en siete grupos: un fragmento de hueso con la zona que se amplía; una fibrilla de colágeno tipo I con bandeo periódico formada por moléculas escalonadas; los huecos entre moléculas; cristales de hidroxiapatita en forma de laminillas; proteínas no colágenas (osteocalcina, osteopontina y osteonectina); flechas de tracción que estiran la fibrilla y flechas de compresión que la aprietan.</desc>
<g id="fragmento_hueso"><path d="M170,210 C188.3,190 216.7,163.7 250,150 C283.3,136.3 328.3,129.7 370,128 C411.7,126.3 460,133 500,140 C540,147 582,151.7 610,170 C638,188.3 660.7,218.3 668,250 C675.3,281.7 667,328.3 654,360 C641,391.7 620.7,421.7 590,440 C559.3,458.3 511.7,466.3 470,470 C428.3,473.7 380,468.7 340,462 C300,455.3 260,448.7 230,430 C200,411.3 175,376.7 160,350 C145,323.3 138.3,293.3 140,270 C141.7,246.7 151.7,230 170,210 Z" stroke-linejoin="round" stroke-linecap="round" fill="none" stroke="none"/><path d="M170,210 C188.3,190 216.7,163.7 250,150 C283.3,136.3 328.3,129.7 370,128 C411.7,126.3 460,133 500,140 C540,147 582,151.7 610,170 C638,188.3 660.7,218.3 668,250 C675.3,281.7 667,328.3 654,360 C641,391.7 620.7,421.7 590,440 C559.3,458.3 511.7,466.3 470,470 C428.3,473.7 380,468.7 340,462 C300,455.3 260,448.7 230,430 C200,411.3 175,376.7 160,350 C145,323.3 138.3,293.3 140,270 C141.7,246.7 151.7,230 170,210 Z" stroke-linejoin="round" stroke-linecap="round" fill="#e9b3c4" stroke="#b0607d" stroke-width="2.4" stroke-opacity="0.9"/><path d="M190.6,228.9 C206.1,212.9 230.5,188.1 260.6,175.9 C290.7,163.7 332,157.4 371.1,156 C410.2,154.6 457.9,161.3 495.2,167.6 C532.4,173.8 570.4,178.6 594.7,193.4 C618.9,208.2 635.1,230.3 640.7,256.3 C646.3,282.3 638.9,322.8 628.1,349.4 C617.2,376 602.4,400.5 575.6,416 C548.9,431.4 506.1,439 467.5,442.1 C429,445.2 381.7,440.4 344.6,434.4 C307.5,428.4 271.5,422.6 244.8,406.2 C218.1,389.9 197.2,358.6 184.4,336.3 C171.6,313.9 166.9,289.9 167.9,272 C169,254.1 175.2,244.9 190.6,228.9 Z" stroke-linejoin="round" stroke-linecap="round" fill="#d98aa2" stroke="#b0607d" stroke-width="2.4" stroke-opacity="0.9"/><path d="M211.3,247.8 C223.8,235.8 244.4,212.5 271.2,201.8 C298.1,191.2 335.7,185.1 372.2,184 C408.8,182.8 455.8,189.7 490.3,195.2 C524.9,200.6 558.8,205.6 579.3,216.9 C599.8,228.1 609.6,242.3 613.4,262.6 C617.3,282.9 610.9,317.2 602.2,338.7 C593.5,360.3 584.1,379.4 561.3,391.9 C538.4,404.5 500.4,411.7 465.1,414.2 C429.7,416.7 383.5,412.1 349.2,406.8 C315,401.5 283,396.5 259.6,382.5 C236.2,368.4 219.4,340.6 208.8,322.5 C198.2,304.5 195.4,286.4 195.9,274 C196.3,261.5 198.7,259.9 211.3,247.8 Z" stroke-linejoin="round" stroke-linecap="round" fill="#e9b3c4" stroke="#b0607d" stroke-width="2.4" stroke-opacity="0.9"/><path d="M231.9,266.8 C241.6,258.7 258.3,236.9 281.9,227.7 C305.4,218.6 339.4,212.8 373.4,211.9 C407.3,211.1 453.7,218 485.5,222.7 C517.3,227.5 547.2,232.6 564,240.3 C580.8,248 584.1,254.3 586.2,269 C588.2,283.6 582.8,311.6 576.3,328.1 C569.7,344.6 565.8,358.2 546.9,367.9 C528,377.6 494.8,384.4 462.6,386.3 C430.5,388.2 385.2,383.8 353.8,379.1 C322.4,374.5 294.5,370.4 274.4,358.7 C254.3,347 241.6,322.6 233.2,308.8 C224.8,295 224,283 223.8,276 C223.6,269 222.2,274.8 231.9,266.8 Z" stroke-linejoin="round" stroke-linecap="round" fill="#d98aa2" stroke="#b0607d" stroke-width="2.4" stroke-opacity="0.9"/><circle cx="330" cy="300" r="22" stroke-linejoin="round" stroke-linecap="round" fill="#fbeed7" stroke="#2b2350" stroke-width="3.5"/><circle cx="326" cy="302" r="10" stroke-linejoin="round" stroke-linecap="round" fill="#d9574a" stroke="#2b2350" stroke-width="1.8"/><ellipse cx="270.9" cy="288.4" rx="9" ry="5" stroke-linejoin="round" stroke-linecap="round" fill="#6f93e2" stroke="#2b2350" stroke-width="2" transform="rotate(119.4 270.9 288.4)"/><ellipse cx="459.6" cy="406.1" rx="9" ry="5" stroke-linejoin="round" stroke-linecap="round" fill="#6f93e2" stroke="#2b2350" stroke-width="2" transform="rotate(12.7 459.6 406.1)"/><ellipse cx="650.6" cy="303.9" rx="9" ry="5" stroke-linejoin="round" stroke-linecap="round" fill="#6f93e2" stroke="#2b2350" stroke-width="2" transform="rotate(174.7 650.6 303.9)"/><ellipse cx="462.7" cy="434.9" rx="9" ry="5" stroke-linejoin="round" stroke-linecap="round" fill="#6f93e2" stroke="#2b2350" stroke-width="2" transform="rotate(68.9 462.7 434.9)"/><ellipse cx="535.9" cy="310.6" rx="9" ry="5" stroke-linejoin="round" stroke-linecap="round" fill="#6f93e2" stroke="#2b2350" stroke-width="2" transform="rotate(81.5 535.9 310.6)"/><ellipse cx="445.4" cy="185.3" rx="9" ry="5" stroke-linejoin="round" stroke-linecap="round" fill="#6f93e2" stroke="#2b2350" stroke-width="2" transform="rotate(86.6 445.4 185.3)"/><ellipse cx="269.7" cy="347.8" rx="9" ry="5" stroke-linejoin="round" stroke-linecap="round" fill="#6f93e2" stroke="#2b2350" stroke-width="2" transform="rotate(177.8 269.7 347.8)"/><ellipse cx="555.9" cy="269.1" rx="9" ry="5" stroke-linejoin="round" stroke-linecap="round" fill="#6f93e2" stroke="#2b2350" stroke-width="2" transform="rotate(170.1 555.9 269.1)"/><ellipse cx="556.6" cy="186.2" rx="9" ry="5" stroke-linejoin="round" stroke-linecap="round" fill="#6f93e2" stroke="#2b2350" stroke-width="2" transform="rotate(125.7 556.6 186.2)"/><ellipse cx="640.6" cy="251.7" rx="9" ry="5" stroke-linejoin="round" stroke-linecap="round" fill="#6f93e2" stroke="#2b2350" stroke-width="2" transform="rotate(170 640.6 251.7)"/><ellipse cx="440.1" cy="409.6" rx="9" ry="5" stroke-linejoin="round" stroke-linecap="round" fill="#6f93e2" stroke="#2b2350" stroke-width="2" transform="rotate(37 440.1 409.6)"/><rect x="456" y="246" width="108" height="88" stroke-linejoin="round" stroke-linecap="round" fill="none" stroke="#2b2350" stroke-width="5" stroke-dasharray="16 9" rx="6"/><rect x="456" y="246" width="108" height="88" stroke-linejoin="round" stroke-linecap="round" fill="#ffffff" fill-opacity="0.2" stroke="#f2b62c" stroke-width="2.5" rx="6"/><text x="400" y="84" font-family="system-ui, -apple-system, 'Segoe UI', Roboto, Arial, sans-serif" font-size="34" font-weight="700" text-anchor="middle" fill="#2b2350" stroke="#ffffff" stroke-opacity="0.9" stroke-width="7" paint-order="stroke" stroke-linejoin="round">Fragmento de hueso</text><line x1="660" y1="546" x2="560" y2="336" stroke-linejoin="round" stroke-linecap="round" stroke="#ffffff" stroke-opacity="0.9" stroke-width="6.5" fill="none"/><line x1="660" y1="546" x2="560" y2="336" stroke-linejoin="round" stroke-linecap="round" stroke="#2b2350" stroke-opacity="0.9" stroke-width="2.5" fill="none"/><circle cx="560" cy="336" r="6.5" stroke-linejoin="round" stroke-linecap="round" fill="#2b2350" stroke="#ffffff" stroke-width="2"/><text x="640" y="570" font-family="system-ui, -apple-system, 'Segoe UI', Roboto, Arial, sans-serif" font-size="30" font-weight="500" text-anchor="end" fill="#2b2350" stroke="#ffffff" stroke-opacity="0.9" stroke-width="7" paint-order="stroke" stroke-linejoin="round">Zona que se amplía</text></g>
<g id="fibrilla_colageno"><rect x="92" y="235.5" width="216.4" height="21" stroke-linejoin="round" stroke-linecap="round" rx="8" fill="#a8748c" stroke="#2b2350" stroke-width="2.6"/><line x1="100" y1="246" x2="300.4" y2="246" stroke-linejoin="round" stroke-linecap="round" stroke="#e6c4d6" stroke-width="2.4" stroke-opacity="0.8"/><rect x="342" y="235.5" width="246.4" height="21" stroke-linejoin="round" stroke-linecap="round" rx="8" fill="#a8748c" stroke="#2b2350" stroke-width="2.6"/><line x1="350" y1="246" x2="580.4" y2="246" stroke-linejoin="round" stroke-linecap="round" stroke="#e6c4d6" stroke-width="2.4" stroke-opacity="0.8"/><rect x="622" y="235.5" width="86" height="21" stroke-linejoin="round" stroke-linecap="round" rx="8" fill="#a8748c" stroke="#2b2350" stroke-width="2.6"/><line x1="630" y1="246" x2="700" y2="246" stroke-linejoin="round" stroke-linecap="round" stroke="#e6c4d6" stroke-width="2.4" stroke-opacity="0.8"/><rect x="92" y="262.5" width="160.4" height="21" stroke-linejoin="round" stroke-linecap="round" rx="8" fill="#a8748c" stroke="#2b2350" stroke-width="2.6"/><line x1="100" y1="273" x2="244.4" y2="273" stroke-linejoin="round" stroke-linecap="round" stroke="#e6c4d6" stroke-width="2.4" stroke-opacity="0.8"/><rect x="286" y="262.5" width="246.4" height="21" stroke-linejoin="round" stroke-linecap="round" rx="8" fill="#a8748c" stroke="#2b2350" stroke-width="2.6"/><line x1="294" y1="273" x2="524.4" y2="273" stroke-linejoin="round" stroke-linecap="round" stroke="#e6c4d6" stroke-width="2.4" stroke-opacity="0.8"/><rect x="566" y="262.5" width="142" height="21" stroke-linejoin="round" stroke-linecap="round" rx="8" fill="#a8748c" stroke="#2b2350" stroke-width="2.6"/><line x1="574" y1="273" x2="700" y2="273" stroke-linejoin="round" stroke-linecap="round" stroke="#e6c4d6" stroke-width="2.4" stroke-opacity="0.8"/><rect x="92" y="289.5" width="104.4" height="21" stroke-linejoin="round" stroke-linecap="round" rx="8" fill="#a8748c" stroke="#2b2350" stroke-width="2.6"/><line x1="100" y1="300" x2="188.4" y2="300" stroke-linejoin="round" stroke-linecap="round" stroke="#e6c4d6" stroke-width="2.4" stroke-opacity="0.8"/><rect x="230" y="289.5" width="246.4" height="21" stroke-linejoin="round" stroke-linecap="round" rx="8" fill="#a8748c" stroke="#2b2350" stroke-width="2.6"/><line x1="238" y1="300" x2="468.4" y2="300" stroke-linejoin="round" stroke-linecap="round" stroke="#e6c4d6" stroke-width="2.4" stroke-opacity="0.8"/><rect x="510" y="289.5" width="198" height="21" stroke-linejoin="round" stroke-linecap="round" rx="8" fill="#a8748c" stroke="#2b2350" stroke-width="2.6"/><line x1="518" y1="300" x2="700" y2="300" stroke-linejoin="round" stroke-linecap="round" stroke="#e6c4d6" stroke-width="2.4" stroke-opacity="0.8"/><rect x="92" y="316.5" width="48.4" height="21" stroke-linejoin="round" stroke-linecap="round" rx="8" fill="#a8748c" stroke="#2b2350" stroke-width="2.6"/><line x1="100" y1="327" x2="132.4" y2="327" stroke-linejoin="round" stroke-linecap="round" stroke="#e6c4d6" stroke-width="2.4" stroke-opacity="0.8"/><rect x="174" y="316.5" width="246.4" height="21" stroke-linejoin="round" stroke-linecap="round" rx="8" fill="#a8748c" stroke="#2b2350" stroke-width="2.6"/><line x1="182" y1="327" x2="412.4" y2="327" stroke-linejoin="round" stroke-linecap="round" stroke="#e6c4d6" stroke-width="2.4" stroke-opacity="0.8"/><rect x="454" y="316.5" width="246.4" height="21" stroke-linejoin="round" stroke-linecap="round" rx="8" fill="#a8748c" stroke="#2b2350" stroke-width="2.6"/><line x1="462" y1="327" x2="692.4" y2="327" stroke-linejoin="round" stroke-linecap="round" stroke="#e6c4d6" stroke-width="2.4" stroke-opacity="0.8"/><rect x="118" y="343.5" width="246.4" height="21" stroke-linejoin="round" stroke-linecap="round" rx="8" fill="#a8748c" stroke="#2b2350" stroke-width="2.6"/><line x1="126" y1="354" x2="356.4" y2="354" stroke-linejoin="round" stroke-linecap="round" stroke="#e6c4d6" stroke-width="2.4" stroke-opacity="0.8"/><rect x="398" y="343.5" width="246.4" height="21" stroke-linejoin="round" stroke-linecap="round" rx="8" fill="#a8748c" stroke="#2b2350" stroke-width="2.6"/><line x1="406" y1="354" x2="636.4" y2="354" stroke-linejoin="round" stroke-linecap="round" stroke="#e6c4d6" stroke-width="2.4" stroke-opacity="0.8"/><rect x="678" y="343.5" width="30" height="21" stroke-linejoin="round" stroke-linecap="round" rx="8" fill="#a8748c" stroke="#2b2350" stroke-width="2.6"/><line x1="686" y1="354" x2="700" y2="354" stroke-linejoin="round" stroke-linecap="round" stroke="#e6c4d6" stroke-width="2.4" stroke-opacity="0.8"/><rect x="92" y="390.5" width="616" height="22" stroke-linejoin="round" stroke-linecap="round" fill="none" stroke="#2b2350" stroke-width="2.4" rx="4"/><rect x="92" y="390.5" width="28" height="22" stroke-linejoin="round" stroke-linecap="round" fill="#5c3a52" stroke="none"/><rect x="120" y="390.5" width="28" height="22" stroke-linejoin="round" stroke-linecap="round" fill="#d9bccb" stroke="none"/><rect x="148" y="390.5" width="28" height="22" stroke-linejoin="round" stroke-linecap="round" fill="#5c3a52" stroke="none"/><rect x="176" y="390.5" width="28" height="22" stroke-linejoin="round" stroke-linecap="round" fill="#d9bccb" stroke="none"/><rect x="204" y="390.5" width="28" height="22" stroke-linejoin="round" stroke-linecap="round" fill="#5c3a52" stroke="none"/><rect x="232" y="390.5" width="28" height="22" stroke-linejoin="round" stroke-linecap="round" fill="#d9bccb" stroke="none"/><rect x="260" y="390.5" width="28" height="22" stroke-linejoin="round" stroke-linecap="round" fill="#5c3a52" stroke="none"/><rect x="288" y="390.5" width="28" height="22" stroke-linejoin="round" stroke-linecap="round" fill="#d9bccb" stroke="none"/><rect x="316" y="390.5" width="28" height="22" stroke-linejoin="round" stroke-linecap="round" fill="#5c3a52" stroke="none"/><rect x="344" y="390.5" width="28" height="22" stroke-linejoin="round" stroke-linecap="round" fill="#d9bccb" stroke="none"/><rect x="372" y="390.5" width="28" height="22" stroke-linejoin="round" stroke-linecap="round" fill="#5c3a52" stroke="none"/><rect x="400" y="390.5" width="28" height="22" stroke-linejoin="round" stroke-linecap="round" fill="#d9bccb" stroke="none"/><rect x="428" y="390.5" width="28" height="22" stroke-linejoin="round" stroke-linecap="round" fill="#5c3a52" stroke="none"/><rect x="456" y="390.5" width="28" height="22" stroke-linejoin="round" stroke-linecap="round" fill="#d9bccb" stroke="none"/><rect x="484" y="390.5" width="28" height="22" stroke-linejoin="round" stroke-linecap="round" fill="#5c3a52" stroke="none"/><rect x="512" y="390.5" width="28" height="22" stroke-linejoin="round" stroke-linecap="round" fill="#d9bccb" stroke="none"/><rect x="540" y="390.5" width="28" height="22" stroke-linejoin="round" stroke-linecap="round" fill="#5c3a52" stroke="none"/><rect x="568" y="390.5" width="28" height="22" stroke-linejoin="round" stroke-linecap="round" fill="#d9bccb" stroke="none"/><rect x="596" y="390.5" width="28" height="22" stroke-linejoin="round" stroke-linecap="round" fill="#5c3a52" stroke="none"/><rect x="624" y="390.5" width="28" height="22" stroke-linejoin="round" stroke-linecap="round" fill="#d9bccb" stroke="none"/><rect x="652" y="390.5" width="28" height="22" stroke-linejoin="round" stroke-linecap="round" fill="#5c3a52" stroke="none"/><rect x="680" y="390.5" width="28" height="22" stroke-linejoin="round" stroke-linecap="round" fill="#d9bccb" stroke="none"/><text x="24" y="462" font-family="system-ui, -apple-system, 'Segoe UI', Roboto, Arial, sans-serif" font-size="32" font-weight="700" text-anchor="start" fill="#2b2350" stroke="#ffffff" stroke-opacity="0.9" stroke-width="7" paint-order="stroke" stroke-linejoin="round">Fibrilla de colágeno tipo I</text><text x="24" y="498" font-family="system-ui, -apple-system, 'Segoe UI', Roboto, Arial, sans-serif" font-size="30" font-weight="500" text-anchor="start" fill="#2b2350" stroke="#ffffff" stroke-opacity="0.9" stroke-width="7" paint-order="stroke" stroke-linejoin="round">con bandeo periódico</text><line x1="120" y1="438" x2="120" y2="414.5" stroke-linejoin="round" stroke-linecap="round" stroke="#ffffff" stroke-opacity="0.9" stroke-width="6.5" fill="none"/><line x1="120" y1="438" x2="120" y2="414.5" stroke-linejoin="round" stroke-linecap="round" stroke="#2b2350" stroke-opacity="0.9" stroke-width="2.5" fill="none"/><circle cx="120" cy="414.5" r="6.5" stroke-linejoin="round" stroke-linecap="round" fill="#2b2350" stroke="#ffffff" stroke-width="2"/></g>
<g id="zonas_hueco"><rect x="308.4" y="233.5" width="33.6" height="25" stroke-linejoin="round" stroke-linecap="round" rx="4" fill="#7fd0e0" stroke="#2b2350" stroke-width="2" stroke-dasharray="6 4"/><rect x="588.4" y="233.5" width="33.6" height="25" stroke-linejoin="round" stroke-linecap="round" rx="4" fill="#7fd0e0" stroke="#2b2350" stroke-width="2" stroke-dasharray="6 4"/><rect x="252.4" y="260.5" width="33.6" height="25" stroke-linejoin="round" stroke-linecap="round" rx="4" fill="#7fd0e0" stroke="#2b2350" stroke-width="2" stroke-dasharray="6 4"/><rect x="532.4" y="260.5" width="33.6" height="25" stroke-linejoin="round" stroke-linecap="round" rx="4" fill="#7fd0e0" stroke="#2b2350" stroke-width="2" stroke-dasharray="6 4"/><rect x="196.4" y="287.5" width="33.6" height="25" stroke-linejoin="round" stroke-linecap="round" rx="4" fill="#7fd0e0" stroke="#2b2350" stroke-width="2" stroke-dasharray="6 4"/><rect x="476.4" y="287.5" width="33.6" height="25" stroke-linejoin="round" stroke-linecap="round" rx="4" fill="#7fd0e0" stroke="#2b2350" stroke-width="2" stroke-dasharray="6 4"/><rect x="140.4" y="314.5" width="33.6" height="25" stroke-linejoin="round" stroke-linecap="round" rx="4" fill="#7fd0e0" stroke="#2b2350" stroke-width="2" stroke-dasharray="6 4"/><rect x="420.4" y="314.5" width="33.6" height="25" stroke-linejoin="round" stroke-linecap="round" rx="4" fill="#7fd0e0" stroke="#2b2350" stroke-width="2" stroke-dasharray="6 4"/><rect x="92" y="341.5" width="26" height="25" stroke-linejoin="round" stroke-linecap="round" rx="4" fill="#7fd0e0" stroke="#2b2350" stroke-width="2" stroke-dasharray="6 4"/><rect x="364.4" y="341.5" width="33.6" height="25" stroke-linejoin="round" stroke-linecap="round" rx="4" fill="#7fd0e0" stroke="#2b2350" stroke-width="2" stroke-dasharray="6 4"/><rect x="644.4" y="341.5" width="33.6" height="25" stroke-linejoin="round" stroke-linecap="round" rx="4" fill="#7fd0e0" stroke="#2b2350" stroke-width="2" stroke-dasharray="6 4"/><text x="776" y="462" font-family="system-ui, -apple-system, 'Segoe UI', Roboto, Arial, sans-serif" font-size="34" font-weight="700" text-anchor="end" fill="#2b2350" stroke="#ffffff" stroke-opacity="0.9" stroke-width="7" paint-order="stroke" stroke-linejoin="round">Huecos</text><line x1="730" y1="436" x2="661.2" y2="366.5" stroke-linejoin="round" stroke-linecap="round" stroke="#ffffff" stroke-opacity="0.9" stroke-width="6.5" fill="none"/><line x1="730" y1="436" x2="661.2" y2="366.5" stroke-linejoin="round" stroke-linecap="round" stroke="#2b2350" stroke-opacity="0.9" stroke-width="2.5" fill="none"/><circle cx="661.2" cy="366.5" r="6.5" stroke-linejoin="round" stroke-linecap="round" fill="#2b2350" stroke="#ffffff" stroke-width="2"/></g>
<g id="cristales_hidroxiapatita"><path d="M300.7,244.8 L322.6,242.9 L327.3,250 L305.4,251.9 Z" stroke-linejoin="round" stroke-linecap="round" fill="#fff3d6" stroke="#7a5a1e" stroke-width="1.8"/><path d="M311.9,243.7 L333.8,241.7 L338.5,248.8 L316.6,250.8 Z" stroke-linejoin="round" stroke-linecap="round" fill="#fff3d6" stroke="#7a5a1e" stroke-width="1.8"/><path d="M323.7,238 L345.6,239.6 L349.1,247.4 L327.2,245.8 Z" stroke-linejoin="round" stroke-linecap="round" fill="#fff3d6" stroke="#7a5a1e" stroke-width="1.8"/><path d="M581,240.3 L603,240.6 L607,248.2 L585,247.9 Z" stroke-linejoin="round" stroke-linecap="round" fill="#fff3d6" stroke="#7a5a1e" stroke-width="1.8"/><path d="M592.4,239.6 L614.4,240.8 L618,248.5 L596,247.3 Z" stroke-linejoin="round" stroke-linecap="round" fill="#fff3d6" stroke="#7a5a1e" stroke-width="1.8"/><path d="M603.2,245.3 L625.2,244.1 L629.6,251.4 L607.6,252.6 Z" stroke-linejoin="round" stroke-linecap="round" fill="#fff3d6" stroke="#7a5a1e" stroke-width="1.8"/><path d="M244.7,268.2 L266.7,266.4 L271.3,273.5 L249.3,275.4 Z" stroke-linejoin="round" stroke-linecap="round" fill="#fff3d6" stroke="#7a5a1e" stroke-width="1.8"/><path d="M256.5,269.4 L278.4,270.9 L281.9,278.7 L260,277.2 Z" stroke-linejoin="round" stroke-linecap="round" fill="#fff3d6" stroke="#7a5a1e" stroke-width="1.8"/><path d="M267.4,267.7 L289.4,267.6 L293.4,275 L271.4,275.1 Z" stroke-linejoin="round" stroke-linecap="round" fill="#fff3d6" stroke="#7a5a1e" stroke-width="1.8"/><path d="M525.2,270.2 L547.2,271.2 L550.8,278.9 L528.8,277.8 Z" stroke-linejoin="round" stroke-linecap="round" fill="#fff3d6" stroke="#7a5a1e" stroke-width="1.8"/><path d="M536.3,269.3 L558.3,270 L562.1,277.6 L540.1,276.9 Z" stroke-linejoin="round" stroke-linecap="round" fill="#fff3d6" stroke="#7a5a1e" stroke-width="1.8"/><path d="M547.3,270.1 L569.3,269.5 L573.5,276.9 L551.5,277.5 Z" stroke-linejoin="round" stroke-linecap="round" fill="#fff3d6" stroke="#7a5a1e" stroke-width="1.8"/><path d="M188.6,294.4 L210.5,291.7 L215.4,298.7 L193.5,301.3 Z" stroke-linejoin="round" stroke-linecap="round" fill="#fff3d6" stroke="#7a5a1e" stroke-width="1.8"/><path d="M200,299.9 L222,298.8 L226.4,306.1 L204.4,307.2 Z" stroke-linejoin="round" stroke-linecap="round" fill="#fff3d6" stroke="#7a5a1e" stroke-width="1.8"/><path d="M211.6,295.2 L233.5,296 L237.2,303.6 L215.3,302.8 Z" stroke-linejoin="round" stroke-linecap="round" fill="#fff3d6" stroke="#7a5a1e" stroke-width="1.8"/><path d="M468.6,298.8 L490.5,296 L495.4,302.9 L473.5,305.7 Z" stroke-linejoin="round" stroke-linecap="round" fill="#fff3d6" stroke="#7a5a1e" stroke-width="1.8"/><path d="M480.6,293 L502.5,294.9 L505.8,302.7 L483.9,300.8 Z" stroke-linejoin="round" stroke-linecap="round" fill="#fff3d6" stroke="#7a5a1e" stroke-width="1.8"/><path d="M492,291.5 L513.8,294.3 L516.8,302.2 L495,299.4 Z" stroke-linejoin="round" stroke-linecap="round" fill="#fff3d6" stroke="#7a5a1e" stroke-width="1.8"/><path d="M132.7,323.3 L154.5,320.9 L159.3,327.9 L137.5,330.3 Z" stroke-linejoin="round" stroke-linecap="round" fill="#fff3d6" stroke="#7a5a1e" stroke-width="1.8"/><path d="M143.9,326.1 L165.9,324.2 L170.5,331.4 L148.5,333.2 Z" stroke-linejoin="round" stroke-linecap="round" fill="#fff3d6" stroke="#7a5a1e" stroke-width="1.8"/><path d="M155.7,321.6 L177.6,323 L181.1,330.7 L159.2,329.3 Z" stroke-linejoin="round" stroke-linecap="round" fill="#fff3d6" stroke="#7a5a1e" stroke-width="1.8"/><path d="M413.3,319 L435.3,320.6 L438.7,328.4 L416.7,326.8 Z" stroke-linejoin="round" stroke-linecap="round" fill="#fff3d6" stroke="#7a5a1e" stroke-width="1.8"/><path d="M424.6,320.1 L446.5,322 L449.8,329.8 L427.9,327.9 Z" stroke-linejoin="round" stroke-linecap="round" fill="#fff3d6" stroke="#7a5a1e" stroke-width="1.8"/><path d="M435.3,327.1 L457.2,326.3 L461.5,333.6 L439.6,334.5 Z" stroke-linejoin="round" stroke-linecap="round" fill="#fff3d6" stroke="#7a5a1e" stroke-width="1.8"/><path d="M85.1,348.6 L103,347.2 L107.6,354.4 L89.6,355.8 Z" stroke-linejoin="round" stroke-linecap="round" fill="#fff3d6" stroke="#7a5a1e" stroke-width="1.8"/><path d="M94.1,352.5 L112.1,352.8 L115.9,360.4 L97.9,360.1 Z" stroke-linejoin="round" stroke-linecap="round" fill="#fff3d6" stroke="#7a5a1e" stroke-width="1.8"/><path d="M102.3,353 L120.2,351.2 L125,358.2 L107.1,360.1 Z" stroke-linejoin="round" stroke-linecap="round" fill="#fff3d6" stroke="#7a5a1e" stroke-width="1.8"/><path d="M357.5,348.6 L379.4,351.1 L382.5,359.1 L360.6,356.5 Z" stroke-linejoin="round" stroke-linecap="round" fill="#fff3d6" stroke="#7a5a1e" stroke-width="1.8"/><path d="M368.6,349.7 L390.5,351.8 L393.8,359.7 L371.9,357.6 Z" stroke-linejoin="round" stroke-linecap="round" fill="#fff3d6" stroke="#7a5a1e" stroke-width="1.8"/><path d="M379.7,345.9 L401.7,347.6 L405.1,355.4 L383.1,353.7 Z" stroke-linejoin="round" stroke-linecap="round" fill="#fff3d6" stroke="#7a5a1e" stroke-width="1.8"/><path d="M636.8,354.7 L658.7,353.3 L663.2,360.5 L641.3,361.9 Z" stroke-linejoin="round" stroke-linecap="round" fill="#fff3d6" stroke="#7a5a1e" stroke-width="1.8"/><path d="M648.4,346.2 L670.4,347.3 L674,355 L652,353.9 Z" stroke-linejoin="round" stroke-linecap="round" fill="#fff3d6" stroke="#7a5a1e" stroke-width="1.8"/><path d="M659.3,348 L681.2,347 L685.5,354.3 L663.6,355.3 Z" stroke-linejoin="round" stroke-linecap="round" fill="#fff3d6" stroke="#7a5a1e" stroke-width="1.8"/><path d="M99.2,220.6 L121.2,221.8 L124.8,229.5 L102.8,228.3 Z" stroke-linejoin="round" stroke-linecap="round" fill="#fff3d6" stroke="#7a5a1e" stroke-width="1.8"/><path d="M141.2,219.3 L163.1,221.8 L166.3,229.7 L144.4,227.2 Z" stroke-linejoin="round" stroke-linecap="round" fill="#fff3d6" stroke="#7a5a1e" stroke-width="1.8"/><path d="M184.7,221.4 L206.5,218 L211.6,224.8 L189.8,228.2 Z" stroke-linejoin="round" stroke-linecap="round" fill="#fff3d6" stroke="#7a5a1e" stroke-width="1.8"/><path d="M228.6,219.2 L250.5,220.2 L254.2,227.9 L232.2,226.9 Z" stroke-linejoin="round" stroke-linecap="round" fill="#fff3d6" stroke="#7a5a1e" stroke-width="1.8"/><path d="M262.5,224.5 L284.2,221.1 L289.4,227.9 L267.6,231.3 Z" stroke-linejoin="round" stroke-linecap="round" fill="#fff3d6" stroke="#7a5a1e" stroke-width="1.8"/><path d="M304.5,218.3 L326.4,216.9 L330.9,224.1 L308.9,225.5 Z" stroke-linejoin="round" stroke-linecap="round" fill="#fff3d6" stroke="#7a5a1e" stroke-width="1.8"/><path d="M345,221.7 L366.9,219 L371.8,225.9 L349.9,228.7 Z" stroke-linejoin="round" stroke-linecap="round" fill="#fff3d6" stroke="#7a5a1e" stroke-width="1.8"/><path d="M385.6,223.7 L407.3,220.1 L412.5,226.8 L390.8,230.4 Z" stroke-linejoin="round" stroke-linecap="round" fill="#fff3d6" stroke="#7a5a1e" stroke-width="1.8"/><path d="M430.7,222.7 L452.7,222 L456.9,229.4 L434.9,230.1 Z" stroke-linejoin="round" stroke-linecap="round" fill="#fff3d6" stroke="#7a5a1e" stroke-width="1.8"/><path d="M477.2,219.6 L499.2,218 L503.7,225.1 L481.8,226.8 Z" stroke-linejoin="round" stroke-linecap="round" fill="#fff3d6" stroke="#7a5a1e" stroke-width="1.8"/><path d="M518.8,220.4 L540.7,217.5 L545.6,224.4 L523.8,227.3 Z" stroke-linejoin="round" stroke-linecap="round" fill="#fff3d6" stroke="#7a5a1e" stroke-width="1.8"/><path d="M561.5,222.1 L583.5,221.1 L587.8,228.4 L565.8,229.4 Z" stroke-linejoin="round" stroke-linecap="round" fill="#fff3d6" stroke="#7a5a1e" stroke-width="1.8"/><path d="M603.4,219.6 L625.3,220.5 L629,228.2 L607,227.3 Z" stroke-linejoin="round" stroke-linecap="round" fill="#fff3d6" stroke="#7a5a1e" stroke-width="1.8"/><path d="M640.6,222.6 L662.6,222.1 L666.8,229.5 L644.8,230 Z" stroke-linejoin="round" stroke-linecap="round" fill="#fff3d6" stroke="#7a5a1e" stroke-width="1.8"/><path d="M99.1,373 L121.1,373.4 L124.9,381 L102.9,380.6 Z" stroke-linejoin="round" stroke-linecap="round" fill="#fff3d6" stroke="#7a5a1e" stroke-width="1.8"/><path d="M142.7,370.1 L164.6,372.5 L167.8,380.4 L145.9,378 Z" stroke-linejoin="round" stroke-linecap="round" fill="#fff3d6" stroke="#7a5a1e" stroke-width="1.8"/><path d="M181.6,372.6 L203.6,371.8 L207.9,379.2 L185.9,380 Z" stroke-linejoin="round" stroke-linecap="round" fill="#fff3d6" stroke="#7a5a1e" stroke-width="1.8"/><path d="M217.1,371.2 L239.1,370 L243.5,377.3 L221.5,378.5 Z" stroke-linejoin="round" stroke-linecap="round" fill="#fff3d6" stroke="#7a5a1e" stroke-width="1.8"/><path d="M260.9,369.6 L282.9,370.4 L286.6,378 L264.6,377.3 Z" stroke-linejoin="round" stroke-linecap="round" fill="#fff3d6" stroke="#7a5a1e" stroke-width="1.8"/><path d="M295.3,372.7 L317.2,370 L322,377 L300.2,379.7 Z" stroke-linejoin="round" stroke-linecap="round" fill="#fff3d6" stroke="#7a5a1e" stroke-width="1.8"/><path d="M337.4,372.4 L359.3,373.8 L362.8,381.5 L340.9,380.1 Z" stroke-linejoin="round" stroke-linecap="round" fill="#fff3d6" stroke="#7a5a1e" stroke-width="1.8"/><path d="M373.6,369.1 L395.5,370.4 L399.1,378.1 L377.1,376.8 Z" stroke-linejoin="round" stroke-linecap="round" fill="#fff3d6" stroke="#7a5a1e" stroke-width="1.8"/><path d="M420.8,368.3 L442.7,371 L445.7,378.9 L423.9,376.2 Z" stroke-linejoin="round" stroke-linecap="round" fill="#fff3d6" stroke="#7a5a1e" stroke-width="1.8"/><path d="M460.9,375.8 L482.6,372.2 L487.8,378.9 L466.1,382.5 Z" stroke-linejoin="round" stroke-linecap="round" fill="#fff3d6" stroke="#7a5a1e" stroke-width="1.8"/><path d="M508.1,371.1 L530,370 L534.4,377.3 L512.4,378.4 Z" stroke-linejoin="round" stroke-linecap="round" fill="#fff3d6" stroke="#7a5a1e" stroke-width="1.8"/><path d="M550.3,372 L572.3,372.3 L576.2,379.9 L554.2,379.6 Z" stroke-linejoin="round" stroke-linecap="round" fill="#fff3d6" stroke="#7a5a1e" stroke-width="1.8"/><path d="M586.5,373.9 L608.2,377.1 L611.1,385.1 L589.3,381.9 Z" stroke-linejoin="round" stroke-linecap="round" fill="#fff3d6" stroke="#7a5a1e" stroke-width="1.8"/><path d="M628.1,373 L650,371.2 L654.6,378.3 L632.7,380.2 Z" stroke-linejoin="round" stroke-linecap="round" fill="#fff3d6" stroke="#7a5a1e" stroke-width="1.8"/><path d="M667.5,374.1 L689.2,370.5 L694.4,377.3 L672.7,380.9 Z" stroke-linejoin="round" stroke-linecap="round" fill="#fff3d6" stroke="#7a5a1e" stroke-width="1.8"/><text x="150" y="118" font-family="system-ui, -apple-system, 'Segoe UI', Roboto, Arial, sans-serif" font-size="32" font-weight="700" text-anchor="start" fill="#2b2350" stroke="#ffffff" stroke-opacity="0.9" stroke-width="7" paint-order="stroke" stroke-linejoin="round">Cristales de hidroxiapatita</text><line x1="470" y1="128" x2="470" y2="221.5" stroke-linejoin="round" stroke-linecap="round" stroke="#ffffff" stroke-opacity="0.9" stroke-width="6.5" fill="none"/><line x1="470" y1="128" x2="470" y2="221.5" stroke-linejoin="round" stroke-linecap="round" stroke="#2b2350" stroke-opacity="0.9" stroke-width="2.5" fill="none"/><circle cx="470" cy="221.5" r="6.5" stroke-linejoin="round" stroke-linecap="round" fill="#2b2350" stroke="#ffffff" stroke-width="2"/></g>
<g id="proteinas_no_colagenas"><circle cx="110" cy="195.5" r="12" stroke-linejoin="round" stroke-linecap="round" fill="#8b5fc0" stroke="#2b2350" stroke-width="2.6"/><circle cx="64" cy="199.5" r="12" stroke-linejoin="round" stroke-linecap="round" fill="#8b5fc0" stroke="#2b2350" stroke-width="2.6"/><circle cx="158" cy="197.5" r="12" stroke-linejoin="round" stroke-linecap="round" fill="#8b5fc0" stroke="#2b2350" stroke-width="2.6"/><path d="M330,181.5 L344,195.5 L330,209.5 L316,195.5 Z" stroke-linejoin="round" stroke-linecap="round" fill="#2fa8a0" stroke="#2b2350" stroke-width="2.6"/><path d="M284,185.5 L298,199.5 L284,213.5 L270,199.5 Z" stroke-linejoin="round" stroke-linecap="round" fill="#2fa8a0" stroke="#2b2350" stroke-width="2.6"/><path d="M378,183.5 L392,197.5 L378,211.5 L364,197.5 Z" stroke-linejoin="round" stroke-linecap="round" fill="#2fa8a0" stroke="#2b2350" stroke-width="2.6"/><rect x="599" y="184.5" width="22" height="22" stroke-linejoin="round" stroke-linecap="round" rx="5" fill="#e0892c" stroke="#2b2350" stroke-width="2.6"/><rect x="553" y="188.5" width="22" height="22" stroke-linejoin="round" stroke-linecap="round" rx="5" fill="#e0892c" stroke="#2b2350" stroke-width="2.6"/><rect x="647" y="186.5" width="22" height="22" stroke-linejoin="round" stroke-linecap="round" rx="5" fill="#e0892c" stroke="#2b2350" stroke-width="2.6"/><text x="110" y="176" font-family="system-ui, -apple-system, 'Segoe UI', Roboto, Arial, sans-serif" font-size="30" font-weight="600" text-anchor="middle" fill="#2b2350" stroke="#ffffff" stroke-opacity="0.9" stroke-width="7" paint-order="stroke" stroke-linejoin="round">Osteocalcina</text><line x1="110" y1="186" x2="110" y2="180.5" stroke-linejoin="round" stroke-linecap="round" stroke="#ffffff" stroke-opacity="0.9" stroke-width="6.5" fill="none"/><line x1="110" y1="186" x2="110" y2="180.5" stroke-linejoin="round" stroke-linecap="round" stroke="#2b2350" stroke-opacity="0.9" stroke-width="2.5" fill="none"/><circle cx="110" cy="180.5" r="6.5" stroke-linejoin="round" stroke-linecap="round" fill="#2b2350" stroke="#ffffff" stroke-width="2"/><text x="330" y="176" font-family="system-ui, -apple-system, 'Segoe UI', Roboto, Arial, sans-serif" font-size="30" font-weight="600" text-anchor="middle" fill="#2b2350" stroke="#ffffff" stroke-opacity="0.9" stroke-width="7" paint-order="stroke" stroke-linejoin="round">Osteopontina</text><line x1="330" y1="186" x2="330" y2="180.5" stroke-linejoin="round" stroke-linecap="round" stroke="#ffffff" stroke-opacity="0.9" stroke-width="6.5" fill="none"/><line x1="330" y1="186" x2="330" y2="180.5" stroke-linejoin="round" stroke-linecap="round" stroke="#2b2350" stroke-opacity="0.9" stroke-width="2.5" fill="none"/><circle cx="330" cy="180.5" r="6.5" stroke-linejoin="round" stroke-linecap="round" fill="#2b2350" stroke="#ffffff" stroke-width="2"/><text x="620" y="176" font-family="system-ui, -apple-system, 'Segoe UI', Roboto, Arial, sans-serif" font-size="30" font-weight="600" text-anchor="middle" fill="#2b2350" stroke="#ffffff" stroke-opacity="0.9" stroke-width="7" paint-order="stroke" stroke-linejoin="round">Osteonectina</text><line x1="620" y1="186" x2="610" y2="180.5" stroke-linejoin="round" stroke-linecap="round" stroke="#ffffff" stroke-opacity="0.9" stroke-width="6.5" fill="none"/><line x1="620" y1="186" x2="610" y2="180.5" stroke-linejoin="round" stroke-linecap="round" stroke="#2b2350" stroke-opacity="0.9" stroke-width="2.5" fill="none"/><circle cx="610" cy="180.5" r="6.5" stroke-linejoin="round" stroke-linecap="round" fill="#2b2350" stroke="#ffffff" stroke-width="2"/></g>
<g id="fuerza_traccion"><line x1="88" y1="300" x2="48" y2="300" stroke-linejoin="round" stroke-linecap="butt" stroke="#e9862f" stroke-width="12" stroke-opacity="1"/><path d="M14,300 L48,278.9 L48,321.1 Z" stroke-linejoin="round" stroke-linecap="round" fill="#e9862f" fill-opacity="1" stroke="#2b2350" stroke-width="2"/><line x1="712" y1="300" x2="752" y2="300" stroke-linejoin="round" stroke-linecap="butt" stroke="#e9862f" stroke-width="12" stroke-opacity="1"/><path d="M786,300 L752,321.1 L752,278.9 Z" stroke-linejoin="round" stroke-linecap="round" fill="#e9862f" fill-opacity="1" stroke="#2b2350" stroke-width="2"/><text x="24" y="64" font-family="system-ui, -apple-system, 'Segoe UI', Roboto, Arial, sans-serif" font-size="34" font-weight="700" text-anchor="start" fill="#2b2350" stroke="#ffffff" stroke-opacity="0.9" stroke-width="7" paint-order="stroke" stroke-linejoin="round">Tracción</text><line x1="56" y1="76" x2="56" y2="286" stroke-linejoin="round" stroke-linecap="round" stroke="#ffffff" stroke-opacity="0.9" stroke-width="6.5" fill="none"/><line x1="56" y1="76" x2="56" y2="286" stroke-linejoin="round" stroke-linecap="round" stroke="#2b2350" stroke-opacity="0.9" stroke-width="2.5" fill="none"/><circle cx="56" cy="286" r="6.5" stroke-linejoin="round" stroke-linecap="round" fill="#2b2350" stroke="#ffffff" stroke-width="2"/><text x="776" y="64" font-family="system-ui, -apple-system, 'Segoe UI', Roboto, Arial, sans-serif" font-size="34" font-weight="700" text-anchor="end" fill="#2b2350" stroke="#ffffff" stroke-opacity="0.9" stroke-width="7" paint-order="stroke" stroke-linejoin="round">Tracción</text><line x1="744" y1="76" x2="744" y2="286" stroke-linejoin="round" stroke-linecap="round" stroke="#ffffff" stroke-opacity="0.9" stroke-width="6.5" fill="none"/><line x1="744" y1="76" x2="744" y2="286" stroke-linejoin="round" stroke-linecap="round" stroke="#2b2350" stroke-opacity="0.9" stroke-width="2.5" fill="none"/><circle cx="744" cy="286" r="6.5" stroke-linejoin="round" stroke-linecap="round" fill="#2b2350" stroke="#ffffff" stroke-width="2"/></g>
<g id="fuerza_compresion"><line x1="500" y1="150" x2="500" y2="191.5" stroke-linejoin="round" stroke-linecap="butt" stroke="#3d8fd1" stroke-width="12" stroke-opacity="1"/><path d="M500,223.5 L480.2,191.5 L519.8,191.5 Z" stroke-linejoin="round" stroke-linecap="round" fill="#3d8fd1" fill-opacity="1" stroke="#2b2350" stroke-width="2"/><line x1="500" y1="545" x2="500" y2="408.5" stroke-linejoin="round" stroke-linecap="butt" stroke="#3d8fd1" stroke-width="12" stroke-opacity="1"/><path d="M500,376.5 L519.8,408.5 L480.2,408.5 Z" stroke-linejoin="round" stroke-linecap="round" fill="#3d8fd1" fill-opacity="1" stroke="#2b2350" stroke-width="2"/><line x1="590" y1="150" x2="590" y2="191.5" stroke-linejoin="round" stroke-linecap="butt" stroke="#3d8fd1" stroke-width="12" stroke-opacity="1"/><path d="M590,223.5 L570.2,191.5 L609.8,191.5 Z" stroke-linejoin="round" stroke-linecap="round" fill="#3d8fd1" fill-opacity="1" stroke="#2b2350" stroke-width="2"/><line x1="590" y1="545" x2="590" y2="408.5" stroke-linejoin="round" stroke-linecap="butt" stroke="#3d8fd1" stroke-width="12" stroke-opacity="1"/><path d="M590,376.5 L609.8,408.5 L570.2,408.5 Z" stroke-linejoin="round" stroke-linecap="round" fill="#3d8fd1" fill-opacity="1" stroke="#2b2350" stroke-width="2"/><line x1="680" y1="150" x2="680" y2="191.5" stroke-linejoin="round" stroke-linecap="butt" stroke="#3d8fd1" stroke-width="12" stroke-opacity="1"/><path d="M680,223.5 L660.2,191.5 L699.8,191.5 Z" stroke-linejoin="round" stroke-linecap="round" fill="#3d8fd1" fill-opacity="1" stroke="#2b2350" stroke-width="2"/><line x1="680" y1="545" x2="680" y2="408.5" stroke-linejoin="round" stroke-linecap="butt" stroke="#3d8fd1" stroke-width="12" stroke-opacity="1"/><path d="M680,376.5 L699.8,408.5 L660.2,408.5 Z" stroke-linejoin="round" stroke-linecap="round" fill="#3d8fd1" fill-opacity="1" stroke="#2b2350" stroke-width="2"/><text x="776" y="588" font-family="system-ui, -apple-system, 'Segoe UI', Roboto, Arial, sans-serif" font-size="34" font-weight="700" text-anchor="end" fill="#2b2350" stroke="#ffffff" stroke-opacity="0.9" stroke-width="7" paint-order="stroke" stroke-linejoin="round">Compresión</text></g>
</svg>
