<svg xmlns="http://www.w3.org/2000/svg" viewBox="0 0 1000 760" fill="none">
<!-- m2_osteoblasto_activo. Modo explorar: sin rótulos en el dibujo (los nombres los muestra la actividad). Orden de dibujo de fondo a superficie; las áreas de toque están en data-zona-toque y las capas no se tapan por completo. -->
<title>Osteoblasto activo sobre el osteoide</title>
<desc>Corte esquemático de un osteoblasto cúbico apoyado sobre una capa de osteoide, con su núcleo en el polo apical, retículo rugoso, Golgi y vesículas de secreción; debajo el frente de mineralización y el hueso mineralizado; a la derecha, una célula de revestimiento plana sobre una superficie sin osteoide.</desc>
<g id="hueso_mineralizado">
<title>Hueso mineralizado</title>
<desc>Matriz ya endurecida por cristales de hidroxiapatita sobre colágeno, debajo del osteoide; sostiene la capa de osteoide y de osteoblastos.</desc>
<g transform="translate(0 -90)">
<path d="M0,685 L1000,685 L1000,850 L0,850 Z" fill="#d98aa2" stroke="currentColor" stroke-opacity="0.8" stroke-width="5" stroke-linejoin="round" stroke-linecap="round"/><path d="M0,740 C250,732 500,748 1000,736" fill="none" stroke="#a8748c" stroke-width="3" stroke-linecap="round" stroke-linejoin="round" stroke-opacity="0.5"/><path d="M0,790 C250,782 500,798 1000,786" fill="none" stroke="#a8748c" stroke-width="3" stroke-linecap="round" stroke-linejoin="round" stroke-opacity="0.5"/><path d="M0,830 C250,822 500,838 1000,826" fill="none" stroke="#a8748c" stroke-width="3" stroke-linecap="round" stroke-linejoin="round" stroke-opacity="0.5"/><polygon points="833.5,772 839.5,781 833.5,790 827.5,781" fill="#fbe6ec" stroke="currentColor" stroke-opacity="0.4" stroke-width="1.5"/><polygon points="627.7,775.5 633.7,784.5 627.7,793.5 621.7,784.5" fill="#fbe6ec" stroke="currentColor" stroke-opacity="0.4" stroke-width="1.5"/><polygon points="834.4,770.1 840.4,779.1 834.4,788.1 828.4,779.1" fill="#fbe6ec" stroke="currentColor" stroke-opacity="0.4" stroke-width="1.5"/><polygon points="893.5,764.8 899.5,773.8 893.5,782.8 887.5,773.8" fill="#fbe6ec" stroke="currentColor" stroke-opacity="0.4" stroke-width="1.5"/><polygon points="79.7,794 85.7,803 79.7,812 73.7,803" fill="#fbe6ec" stroke="currentColor" stroke-opacity="0.4" stroke-width="1.5"/><polygon points="815.1,752.4 821.1,761.4 815.1,770.4 809.1,761.4" fill="#fbe6ec" stroke="currentColor" stroke-opacity="0.4" stroke-width="1.5"/><polygon points="349.4,821.2 355.4,830.2 349.4,839.2 343.4,830.2" fill="#fbe6ec" stroke="currentColor" stroke-opacity="0.4" stroke-width="1.5"/><polygon points="411,739.4 417,748.4 411,757.4 405,748.4" fill="#fbe6ec" stroke="currentColor" stroke-opacity="0.4" stroke-width="1.5"/><polygon points="274.8,794.5 280.8,803.5 274.8,812.5 268.8,803.5" fill="#fbe6ec" stroke="currentColor" stroke-opacity="0.4" stroke-width="1.5"/><polygon points="794.1,750.1 800.1,759.1 794.1,768.1 788.1,759.1" fill="#fbe6ec" stroke="currentColor" stroke-opacity="0.4" stroke-width="1.5"/><polygon points="277.6,775.5 283.6,784.5 277.6,793.5 271.6,784.5" fill="#fbe6ec" stroke="currentColor" stroke-opacity="0.4" stroke-width="1.5"/><polygon points="230.5,757.9 236.5,766.9 230.5,775.9 224.5,766.9" fill="#fbe6ec" stroke="currentColor" stroke-opacity="0.4" stroke-width="1.5"/><polygon points="168.2,768.6 174.2,777.6 168.2,786.6 162.2,777.6" fill="#fbe6ec" stroke="currentColor" stroke-opacity="0.4" stroke-width="1.5"/><polygon points="313.3,720.1 319.3,729.1 313.3,738.1 307.3,729.1" fill="#fbe6ec" stroke="currentColor" stroke-opacity="0.4" stroke-width="1.5"/><polygon points="833.3,735.7 839.3,744.7 833.3,753.7 827.3,744.7" fill="#fbe6ec" stroke="currentColor" stroke-opacity="0.4" stroke-width="1.5"/><polygon points="54.4,789 60.4,798 54.4,807 48.4,798" fill="#fbe6ec" stroke="currentColor" stroke-opacity="0.4" stroke-width="1.5"/><polygon points="480.6,770.8 486.6,779.8 480.6,788.8 474.6,779.8" fill="#fbe6ec" stroke="currentColor" stroke-opacity="0.4" stroke-width="1.5"/><polygon points="744,739.9 750,748.9 744,757.9 738,748.9" fill="#fbe6ec" stroke="currentColor" stroke-opacity="0.4" stroke-width="1.5"/><polygon points="707.7,766.3 713.7,775.3 707.7,784.3 701.7,775.3" fill="#fbe6ec" stroke="currentColor" stroke-opacity="0.4" stroke-width="1.5"/><polygon points="551.4,735.7 557.4,744.7 551.4,753.7 545.4,744.7" fill="#fbe6ec" stroke="currentColor" stroke-opacity="0.4" stroke-width="1.5"/><polygon points="207,794.9 213,803.9 207,812.9 201,803.9" fill="#fbe6ec" stroke="currentColor" stroke-opacity="0.4" stroke-width="1.5"/><polygon points="540.5,745.1 546.5,754.1 540.5,763.1 534.5,754.1" fill="#fbe6ec" stroke="currentColor" stroke-opacity="0.4" stroke-width="1.5"/><polygon points="858.4,794.5 864.4,803.5 858.4,812.5 852.4,803.5" fill="#fbe6ec" stroke="currentColor" stroke-opacity="0.4" stroke-width="1.5"/><polygon points="245.6,720.2 251.6,729.2 245.6,738.2 239.6,729.2" fill="#fbe6ec" stroke="currentColor" stroke-opacity="0.4" stroke-width="1.5"/><polygon points="247.6,716.1 253.6,725.1 247.6,734.1 241.6,725.1" fill="#fbe6ec" stroke="currentColor" stroke-opacity="0.4" stroke-width="1.5"/><polygon points="481.2,736.2 487.2,745.2 481.2,754.2 475.2,745.2" fill="#fbe6ec" stroke="currentColor" stroke-opacity="0.4" stroke-width="1.5"/><polygon points="559.7,729.9 565.7,738.9 559.7,747.9 553.7,738.9" fill="#fbe6ec" stroke="currentColor" stroke-opacity="0.4" stroke-width="1.5"/><polygon points="400.3,812.4 406.3,821.4 400.3,830.4 394.3,821.4" fill="#fbe6ec" stroke="currentColor" stroke-opacity="0.4" stroke-width="1.5"/><polygon points="757.4,759 763.4,768 757.4,777 751.4,768" fill="#fbe6ec" stroke="currentColor" stroke-opacity="0.4" stroke-width="1.5"/><polygon points="813.1,726.4 819.1,735.4 813.1,744.4 807.1,735.4" fill="#fbe6ec" stroke="currentColor" stroke-opacity="0.4" stroke-width="1.5"/><polygon points="215.4,778.1 221.4,787.1 215.4,796.1 209.4,787.1" fill="#fbe6ec" stroke="currentColor" stroke-opacity="0.4" stroke-width="1.5"/><polygon points="888,816.3 894,825.3 888,834.3 882,825.3" fill="#fbe6ec" stroke="currentColor" stroke-opacity="0.4" stroke-width="1.5"/><polygon points="592.7,822 598.7,831 592.7,840 586.7,831" fill="#fbe6ec" stroke="currentColor" stroke-opacity="0.4" stroke-width="1.5"/><polygon points="294.9,782.1 300.9,791.1 294.9,800.1 288.9,791.1" fill="#fbe6ec" stroke="currentColor" stroke-opacity="0.4" stroke-width="1.5"/>
<g data-zona-toque="" fill="transparent" stroke="none"><rect x="0" y="695" width="1000" height="160"/></g>
</g>
</g>
<g id="osteoide">
<title>Osteoide</title>
<desc>Capa de matriz orgánica recién secretada, rica en colágeno tipo I, todavía sin mineralizar; queda entre el osteoblasto y el hueso mineralizado.</desc>
<g transform="translate(0 -90)">
<path d="M0,685 L700,685 L700,567 Q700,545 678,545 L0,545 Z" fill="#f4d3dd" stroke="currentColor" stroke-opacity="0.8" stroke-width="4.5" stroke-linejoin="round" stroke-linecap="round"/><path d="M8,567 C200,558 420,576 690,564" fill="none" stroke="#a8748c" stroke-width="3.5" stroke-linecap="round" stroke-linejoin="round" stroke-opacity="0.6"/><path d="M8,588 C200,579 420,597 690,585" fill="none" stroke="#a8748c" stroke-width="3.5" stroke-linecap="round" stroke-linejoin="round" stroke-opacity="0.6"/><path d="M8,609 C200,600 420,618 690,606" fill="none" stroke="#a8748c" stroke-width="3.5" stroke-linecap="round" stroke-linejoin="round" stroke-opacity="0.6"/><path d="M8,630 C200,621 420,639 690,627" fill="none" stroke="#a8748c" stroke-width="3.5" stroke-linecap="round" stroke-linejoin="round" stroke-opacity="0.6"/><path d="M8,651 C200,642 420,660 690,648" fill="none" stroke="#a8748c" stroke-width="3.5" stroke-linecap="round" stroke-linejoin="round" stroke-opacity="0.6"/><path d="M8,672 C200,663 420,681 690,669" fill="none" stroke="#a8748c" stroke-width="3.5" stroke-linecap="round" stroke-linejoin="round" stroke-opacity="0.6"/><path d="M40,559 l0,4 M60,585 l0,4 M48,621 l0,4 M66,645 l0,4" fill="none" stroke="#a8748c" stroke-width="3" stroke-linecap="round" stroke-linejoin="round" stroke-opacity="0.5"/><path d="M86,559 l0,4 M106,585 l0,4 M94,621 l0,4 M112,645 l0,4" fill="none" stroke="#a8748c" stroke-width="3" stroke-linecap="round" stroke-linejoin="round" stroke-opacity="0.5"/><path d="M132,559 l0,4 M152,585 l0,4 M140,621 l0,4 M158,645 l0,4" fill="none" stroke="#a8748c" stroke-width="3" stroke-linecap="round" stroke-linejoin="round" stroke-opacity="0.5"/><path d="M178,559 l0,4 M198,585 l0,4 M186,621 l0,4 M204,645 l0,4" fill="none" stroke="#a8748c" stroke-width="3" stroke-linecap="round" stroke-linejoin="round" stroke-opacity="0.5"/><path d="M224,559 l0,4 M244,585 l0,4 M232,621 l0,4 M250,645 l0,4" fill="none" stroke="#a8748c" stroke-width="3" stroke-linecap="round" stroke-linejoin="round" stroke-opacity="0.5"/><path d="M270,559 l0,4 M290,585 l0,4 M278,621 l0,4 M296,645 l0,4" fill="none" stroke="#a8748c" stroke-width="3" stroke-linecap="round" stroke-linejoin="round" stroke-opacity="0.5"/><path d="M316,559 l0,4 M336,585 l0,4 M324,621 l0,4 M342,645 l0,4" fill="none" stroke="#a8748c" stroke-width="3" stroke-linecap="round" stroke-linejoin="round" stroke-opacity="0.5"/><path d="M362,559 l0,4 M382,585 l0,4 M370,621 l0,4 M388,645 l0,4" fill="none" stroke="#a8748c" stroke-width="3" stroke-linecap="round" stroke-linejoin="round" stroke-opacity="0.5"/><path d="M408,559 l0,4 M428,585 l0,4 M416,621 l0,4 M434,645 l0,4" fill="none" stroke="#a8748c" stroke-width="3" stroke-linecap="round" stroke-linejoin="round" stroke-opacity="0.5"/><path d="M454,559 l0,4 M474,585 l0,4 M462,621 l0,4 M480,645 l0,4" fill="none" stroke="#a8748c" stroke-width="3" stroke-linecap="round" stroke-linejoin="round" stroke-opacity="0.5"/><path d="M500,559 l0,4 M520,585 l0,4 M508,621 l0,4 M526,645 l0,4" fill="none" stroke="#a8748c" stroke-width="3" stroke-linecap="round" stroke-linejoin="round" stroke-opacity="0.5"/><path d="M546,559 l0,4 M566,585 l0,4 M554,621 l0,4 M572,645 l0,4" fill="none" stroke="#a8748c" stroke-width="3" stroke-linecap="round" stroke-linejoin="round" stroke-opacity="0.5"/><path d="M592,559 l0,4 M612,585 l0,4 M600,621 l0,4 M618,645 l0,4" fill="none" stroke="#a8748c" stroke-width="3" stroke-linecap="round" stroke-linejoin="round" stroke-opacity="0.5"/><path d="M638,559 l0,4 M658,585 l0,4 M646,621 l0,4 M664,645 l0,4" fill="none" stroke="#a8748c" stroke-width="3" stroke-linecap="round" stroke-linejoin="round" stroke-opacity="0.5"/>

</g>
</g>
<g id="frente_mineralizacion">
<title>Frente de mineralización</title>
<desc>Límite entre el osteoide y el hueso mineralizado, donde se depositan los cristales de hidroxiapatita.</desc>
<g transform="translate(0 -90)">
<path d="M4,682 C180,673 360,691 560,679 S690,683 698,681" fill="none" stroke="#b0607d" stroke-width="7" stroke-linecap="round" stroke-linejoin="round" stroke-opacity="0.9" stroke-dasharray="2 0"/><polygon points="22,651 30,663 22,675 14,663" fill="#fff4f8" stroke="currentColor" stroke-opacity="0.8" stroke-width="2"/><polygon points="52,663 60,675 52,687 44,675" fill="#fff4f8" stroke="currentColor" stroke-opacity="0.8" stroke-width="2"/><polygon points="82,651 90,663 82,675 74,663" fill="#fff4f8" stroke="currentColor" stroke-opacity="0.8" stroke-width="2"/><polygon points="112,663 120,675 112,687 104,675" fill="#fff4f8" stroke="currentColor" stroke-opacity="0.8" stroke-width="2"/><polygon points="142,651 150,663 142,675 134,663" fill="#fff4f8" stroke="currentColor" stroke-opacity="0.8" stroke-width="2"/><polygon points="172,663 180,675 172,687 164,675" fill="#fff4f8" stroke="currentColor" stroke-opacity="0.8" stroke-width="2"/><polygon points="202,651 210,663 202,675 194,663" fill="#fff4f8" stroke="currentColor" stroke-opacity="0.8" stroke-width="2"/><polygon points="232,663 240,675 232,687 224,675" fill="#fff4f8" stroke="currentColor" stroke-opacity="0.8" stroke-width="2"/><polygon points="262,651 270,663 262,675 254,663" fill="#fff4f8" stroke="currentColor" stroke-opacity="0.8" stroke-width="2"/><polygon points="292,663 300,675 292,687 284,675" fill="#fff4f8" stroke="currentColor" stroke-opacity="0.8" stroke-width="2"/><polygon points="322,651 330,663 322,675 314,663" fill="#fff4f8" stroke="currentColor" stroke-opacity="0.8" stroke-width="2"/><polygon points="352,663 360,675 352,687 344,675" fill="#fff4f8" stroke="currentColor" stroke-opacity="0.8" stroke-width="2"/><polygon points="382,651 390,663 382,675 374,663" fill="#fff4f8" stroke="currentColor" stroke-opacity="0.8" stroke-width="2"/><polygon points="412,663 420,675 412,687 404,675" fill="#fff4f8" stroke="currentColor" stroke-opacity="0.8" stroke-width="2"/><polygon points="442,651 450,663 442,675 434,663" fill="#fff4f8" stroke="currentColor" stroke-opacity="0.8" stroke-width="2"/><polygon points="472,663 480,675 472,687 464,675" fill="#fff4f8" stroke="currentColor" stroke-opacity="0.8" stroke-width="2"/><polygon points="502,651 510,663 502,675 494,663" fill="#fff4f8" stroke="currentColor" stroke-opacity="0.8" stroke-width="2"/><polygon points="532,663 540,675 532,687 524,675" fill="#fff4f8" stroke="currentColor" stroke-opacity="0.8" stroke-width="2"/><polygon points="562,651 570,663 562,675 554,663" fill="#fff4f8" stroke="currentColor" stroke-opacity="0.8" stroke-width="2"/><polygon points="592,663 600,675 592,687 584,675" fill="#fff4f8" stroke="currentColor" stroke-opacity="0.8" stroke-width="2"/><polygon points="622,651 630,663 622,675 614,663" fill="#fff4f8" stroke="currentColor" stroke-opacity="0.8" stroke-width="2"/><polygon points="652,663 660,675 652,687 644,675" fill="#fff4f8" stroke="currentColor" stroke-opacity="0.8" stroke-width="2"/><polygon points="682,651 690,663 682,675 674,663" fill="#fff4f8" stroke="currentColor" stroke-opacity="0.8" stroke-width="2"/>
<g data-zona-toque="" fill="transparent" stroke="none"><rect x="0" y="641" width="715" height="68"/></g>
</g>
</g>
<g id="fondo_osteoblastos" pointer-events="none">
<title>Osteoblastos</title>
<desc>Cuerpo del osteoblasto activo, cúbico, sobre el osteoide, entre dos osteoblastos vecinos.</desc>
<g transform="translate(0 -90)"><rect x="-60" y="232" width="220" height="313" rx="34" fill="#bdb3ee" stroke="currentColor" stroke-opacity="0.8" stroke-width="4" stroke-linejoin="round" stroke-linecap="round"/><ellipse cx="52" cy="318" rx="56" ry="42" fill="#3b2f86" stroke="currentColor" stroke-opacity="0.8" stroke-width="3" stroke-linejoin="round" stroke-linecap="round"/><circle cx="64" cy="312" r="12" fill="#8f86e0"/><rect x="520" y="262" width="172" height="283" rx="34" fill="#bdb3ee" stroke="currentColor" stroke-opacity="0.8" stroke-width="4" stroke-linejoin="round" stroke-linecap="round"/><ellipse cx="606" cy="338" rx="58" ry="42" fill="#3b2f86" stroke="currentColor" stroke-opacity="0.8" stroke-width="3" stroke-linejoin="round" stroke-linecap="round"/><circle cx="618" cy="332" r="12" fill="#8f86e0"/><rect x="170" y="228" width="340" height="317" rx="34" fill="#a598e6" stroke="currentColor" stroke-opacity="0.8" stroke-width="5" stroke-linejoin="round" stroke-linecap="round"/></g></g>
<g id="nucleo_osteoblasto">
<title>Núcleo</title>
<desc>Núcleo grande, ubicado en el polo de la célula más alejado del hueso, con la cromatina laxa de una célula muy activa.</desc>
<g transform="translate(0 -90)">
<ellipse cx="340" cy="302" rx="102" ry="52" fill="#3b2f86" stroke="currentColor" stroke-opacity="0.8" stroke-width="4.5" stroke-linejoin="round" stroke-linecap="round"/><circle cx="366" cy="292" r="20" fill="#8f86e0"/><circle cx="300" cy="318" r="8" fill="#8f86e0" fill-opacity="0.6"/><circle cx="392" cy="322" r="6" fill="#8f86e0" fill-opacity="0.6"/>

</g>
</g>
<g id="reticulo_endoplasmico_rugoso">
<title>Retículo endoplasmático rugoso</title>
<desc>Cisternas paralelas cubiertas de ribosomas, muy abundantes: sintetizan el procolágeno tipo I y por eso el citoplasma es basófilo.</desc>
<g transform="translate(0 -90)">
<path d="M340,378 q18,-14 36,0 t36,0 t36,0 t36,0" fill="none" stroke="currentColor" stroke-width="15" stroke-linecap="round" stroke-linejoin="round" stroke-opacity="0.8"/><path d="M340,378 q18,-14 36,0 t36,0 t36,0 t36,0" fill="none" stroke="#5a4bb8" stroke-width="9.5" stroke-linecap="round" stroke-linejoin="round"/><circle cx="346" cy="367.3" r="3.2" fill="#fbe6ec"/><circle cx="364" cy="382.2" r="3.2" fill="#fbe6ec"/><circle cx="382" cy="367.3" r="3.2" fill="#fbe6ec"/><circle cx="400" cy="382.2" r="3.2" fill="#fbe6ec"/><circle cx="418" cy="367.3" r="3.2" fill="#fbe6ec"/><circle cx="436" cy="382.2" r="3.2" fill="#fbe6ec"/><circle cx="454" cy="367.3" r="3.2" fill="#fbe6ec"/><circle cx="472" cy="382.2" r="3.2" fill="#fbe6ec"/><circle cx="490" cy="367.3" r="3.2" fill="#fbe6ec"/><path d="M346,402 q18,-14 36,0 t36,0 t36,0 t36,0" fill="none" stroke="currentColor" stroke-width="15" stroke-linecap="round" stroke-linejoin="round" stroke-opacity="0.8"/><path d="M346,402 q18,-14 36,0 t36,0 t36,0 t36,0" fill="none" stroke="#5a4bb8" stroke-width="9.5" stroke-linecap="round" stroke-linejoin="round"/><circle cx="352" cy="391.3" r="3.2" fill="#fbe6ec"/><circle cx="370" cy="406.2" r="3.2" fill="#fbe6ec"/><circle cx="388" cy="391.3" r="3.2" fill="#fbe6ec"/><circle cx="406" cy="406.2" r="3.2" fill="#fbe6ec"/><circle cx="424" cy="391.3" r="3.2" fill="#fbe6ec"/><circle cx="442" cy="406.2" r="3.2" fill="#fbe6ec"/><circle cx="460" cy="391.3" r="3.2" fill="#fbe6ec"/><circle cx="478" cy="406.2" r="3.2" fill="#fbe6ec"/><circle cx="496" cy="391.3" r="3.2" fill="#fbe6ec"/><path d="M340,426 q18,-14 36,0 t36,0 t36,0 t36,0" fill="none" stroke="currentColor" stroke-width="15" stroke-linecap="round" stroke-linejoin="round" stroke-opacity="0.8"/><path d="M340,426 q18,-14 36,0 t36,0 t36,0 t36,0" fill="none" stroke="#5a4bb8" stroke-width="9.5" stroke-linecap="round" stroke-linejoin="round"/><circle cx="346" cy="415.3" r="3.2" fill="#fbe6ec"/><circle cx="364" cy="430.2" r="3.2" fill="#fbe6ec"/><circle cx="382" cy="415.3" r="3.2" fill="#fbe6ec"/><circle cx="400" cy="430.2" r="3.2" fill="#fbe6ec"/><circle cx="418" cy="415.3" r="3.2" fill="#fbe6ec"/><circle cx="436" cy="430.2" r="3.2" fill="#fbe6ec"/><circle cx="454" cy="415.3" r="3.2" fill="#fbe6ec"/><circle cx="472" cy="430.2" r="3.2" fill="#fbe6ec"/><circle cx="490" cy="415.3" r="3.2" fill="#fbe6ec"/><path d="M346,450 q18,-14 36,0 t36,0 t36,0 t36,0" fill="none" stroke="currentColor" stroke-width="15" stroke-linecap="round" stroke-linejoin="round" stroke-opacity="0.8"/><path d="M346,450 q18,-14 36,0 t36,0 t36,0 t36,0" fill="none" stroke="#5a4bb8" stroke-width="9.5" stroke-linecap="round" stroke-linejoin="round"/><circle cx="352" cy="439.3" r="3.2" fill="#fbe6ec"/><circle cx="370" cy="454.2" r="3.2" fill="#fbe6ec"/><circle cx="388" cy="439.3" r="3.2" fill="#fbe6ec"/><circle cx="406" cy="454.2" r="3.2" fill="#fbe6ec"/><circle cx="424" cy="439.3" r="3.2" fill="#fbe6ec"/><circle cx="442" cy="454.2" r="3.2" fill="#fbe6ec"/><circle cx="460" cy="439.3" r="3.2" fill="#fbe6ec"/><circle cx="478" cy="454.2" r="3.2" fill="#fbe6ec"/><circle cx="496" cy="439.3" r="3.2" fill="#fbe6ec"/><path d="M340,474 q18,-14 36,0 t36,0 t36,0 t36,0" fill="none" stroke="currentColor" stroke-width="15" stroke-linecap="round" stroke-linejoin="round" stroke-opacity="0.8"/><path d="M340,474 q18,-14 36,0 t36,0 t36,0 t36,0" fill="none" stroke="#5a4bb8" stroke-width="9.5" stroke-linecap="round" stroke-linejoin="round"/><circle cx="346" cy="463.3" r="3.2" fill="#fbe6ec"/><circle cx="364" cy="478.2" r="3.2" fill="#fbe6ec"/><circle cx="382" cy="463.3" r="3.2" fill="#fbe6ec"/><circle cx="400" cy="478.2" r="3.2" fill="#fbe6ec"/><circle cx="418" cy="463.3" r="3.2" fill="#fbe6ec"/><circle cx="436" cy="478.2" r="3.2" fill="#fbe6ec"/><circle cx="454" cy="463.3" r="3.2" fill="#fbe6ec"/><circle cx="472" cy="478.2" r="3.2" fill="#fbe6ec"/><circle cx="490" cy="463.3" r="3.2" fill="#fbe6ec"/>
<g data-zona-toque="" fill="transparent" stroke="none"><rect x="336" y="352" width="190" height="132" rx="20"/></g>
</g>
</g>
<g id="aparato_golgi">
<title>Aparato de Golgi</title>
<desc>Pila de sáculos aplanados junto al núcleo, muy desarrollada; modifica las proteínas de la matriz y las empaqueta en vesículas.</desc>
<g transform="translate(0 -90)">
<path d="M204,398 Q258,370 312,398" fill="none" stroke="currentColor" stroke-width="16" stroke-linecap="round" stroke-linejoin="round" stroke-opacity="0.8"/><path d="M204,398 Q258,370 312,398" fill="none" stroke="#e9c46a" stroke-width="10" stroke-linecap="round" stroke-linejoin="round"/><path d="M204,420 Q258,392 312,420" fill="none" stroke="currentColor" stroke-width="16" stroke-linecap="round" stroke-linejoin="round" stroke-opacity="0.8"/><path d="M204,420 Q258,392 312,420" fill="none" stroke="#e9c46a" stroke-width="10" stroke-linecap="round" stroke-linejoin="round"/><path d="M204,442 Q258,414 312,442" fill="none" stroke="currentColor" stroke-width="16" stroke-linecap="round" stroke-linejoin="round" stroke-opacity="0.8"/><path d="M204,442 Q258,414 312,442" fill="none" stroke="#e9c46a" stroke-width="10" stroke-linecap="round" stroke-linejoin="round"/><path d="M204,464 Q258,436 312,464" fill="none" stroke="currentColor" stroke-width="16" stroke-linecap="round" stroke-linejoin="round" stroke-opacity="0.8"/><path d="M204,464 Q258,436 312,464" fill="none" stroke="#e9c46a" stroke-width="10" stroke-linecap="round" stroke-linejoin="round"/><circle cx="202" cy="448" r="8" fill="#e9c46a" stroke="currentColor" stroke-opacity="0.8" stroke-width="2.5" stroke-linejoin="round" stroke-linecap="round"/><circle cx="316" cy="452" r="8" fill="#e9c46a" stroke="currentColor" stroke-opacity="0.8" stroke-width="2.5" stroke-linejoin="round" stroke-linecap="round"/><circle cx="262" cy="476" r="7" fill="#e9c46a" stroke="currentColor" stroke-opacity="0.8" stroke-width="2.5" stroke-linejoin="round" stroke-linecap="round"/>
<g data-zona-toque="" fill="transparent" stroke="none"><circle cx="258" cy="428" r="66"/></g>
</g>
</g>
<g id="vesiculas_secrecion">
<title>Vesículas de secreción</title>
<desc>Vesículas que llevan procolágeno y otras proteínas hacia la membrana en contacto con el hueso, donde se liberan a la matriz.</desc>
<g transform="translate(0 -90)">
<circle cx="225" cy="506" r="17" fill="#fbf1f6" stroke="currentColor" stroke-opacity="0.8" stroke-width="3.5" stroke-linejoin="round" stroke-linecap="round"/><path d="M217,503 q8,-8 16,0 M217,512 q8,-8 16,0" fill="none" stroke="#a8748c" stroke-width="2.5" stroke-linecap="round" stroke-linejoin="round" stroke-opacity="0.9"/><circle cx="272" cy="520" r="17" fill="#fbf1f6" stroke="currentColor" stroke-opacity="0.8" stroke-width="3.5" stroke-linejoin="round" stroke-linecap="round"/><path d="M264,517 q8,-8 16,0 M264,526 q8,-8 16,0" fill="none" stroke="#a8748c" stroke-width="2.5" stroke-linecap="round" stroke-linejoin="round" stroke-opacity="0.9"/><circle cx="318" cy="504" r="17" fill="#fbf1f6" stroke="currentColor" stroke-opacity="0.8" stroke-width="3.5" stroke-linejoin="round" stroke-linecap="round"/><path d="M310,501 q8,-8 16,0 M310,510 q8,-8 16,0" fill="none" stroke="#a8748c" stroke-width="2.5" stroke-linecap="round" stroke-linejoin="round" stroke-opacity="0.9"/><circle cx="366" cy="522" r="17" fill="#fbf1f6" stroke="currentColor" stroke-opacity="0.8" stroke-width="3.5" stroke-linejoin="round" stroke-linecap="round"/><path d="M358,519 q8,-8 16,0 M358,528 q8,-8 16,0" fill="none" stroke="#a8748c" stroke-width="2.5" stroke-linecap="round" stroke-linejoin="round" stroke-opacity="0.9"/><circle cx="414" cy="506" r="17" fill="#fbf1f6" stroke="currentColor" stroke-opacity="0.8" stroke-width="3.5" stroke-linejoin="round" stroke-linecap="round"/><path d="M406,503 q8,-8 16,0 M406,512 q8,-8 16,0" fill="none" stroke="#a8748c" stroke-width="2.5" stroke-linecap="round" stroke-linejoin="round" stroke-opacity="0.9"/><circle cx="462" cy="520" r="17" fill="#fbf1f6" stroke="currentColor" stroke-opacity="0.8" stroke-width="3.5" stroke-linejoin="round" stroke-linecap="round"/><path d="M454,517 q8,-8 16,0 M454,526 q8,-8 16,0" fill="none" stroke="#a8748c" stroke-width="2.5" stroke-linecap="round" stroke-linejoin="round" stroke-opacity="0.9"/><path d="M486,537 a17,17 0 1 1 34,0 z" fill="#fbf1f6" stroke="currentColor" stroke-opacity="0.8" stroke-width="3.5" stroke-linejoin="round" stroke-linecap="round"/><circle cx="503" cy="553" r="6" fill="#f4d3dd" stroke="currentColor" stroke-opacity="0.8" stroke-width="2" stroke-linejoin="round" stroke-linecap="round"/>
<g data-zona-toque="" fill="transparent" stroke="none"><rect x="200" y="482" width="330" height="74" rx="14"/></g>
</g>
</g>
<g id="fosfatasa_alcalina">
<title>Fosfatasa alcalina</title>
<desc>Enzima anclada a la membrana del osteoblasto y a las vesículas de la matriz; elimina el pirofosfato inhibidor y aporta fosfato para la mineralización.</desc>
<g transform="translate(0 -90)">
<path d="M214,561 L214,573" fill="none" stroke="currentColor" stroke-width="4" stroke-linecap="round" stroke-linejoin="round" stroke-opacity="0.8"/><path d="M199,573 A15,15 0 0 0 229,573 Z" fill="#e2a12e" stroke="currentColor" stroke-opacity="0.8" stroke-width="3" stroke-linejoin="round" stroke-linecap="round"/><path d="M262,561 L262,573" fill="none" stroke="currentColor" stroke-width="4" stroke-linecap="round" stroke-linejoin="round" stroke-opacity="0.8"/><path d="M247,573 A15,15 0 0 0 277,573 Z" fill="#e2a12e" stroke="currentColor" stroke-opacity="0.8" stroke-width="3" stroke-linejoin="round" stroke-linecap="round"/><circle cx="322" cy="621" r="24" fill="#fbf1f6" stroke="currentColor" stroke-opacity="0.8" stroke-width="3.5" stroke-linejoin="round" stroke-linecap="round"/><path d="M310,575 L310,587" fill="none" stroke="currentColor" stroke-width="4" stroke-linecap="round" stroke-linejoin="round" stroke-opacity="0.8"/><path d="M297,587 A13,13 0 0 0 323,587 Z" fill="#e2a12e" stroke="currentColor" stroke-opacity="0.8" stroke-width="3" stroke-linejoin="round" stroke-linecap="round"/><path d="M340,579 L340,591" fill="none" stroke="currentColor" stroke-width="4" stroke-linecap="round" stroke-linejoin="round" stroke-opacity="0.8"/><path d="M327,591 A13,13 0 0 0 353,591 Z" fill="#e2a12e" stroke="currentColor" stroke-opacity="0.8" stroke-width="3" stroke-linejoin="round" stroke-linecap="round"/><circle cx="232" cy="633" r="17" fill="#fbf1f6" stroke="currentColor" stroke-opacity="0.8" stroke-width="3.5" stroke-linejoin="round" stroke-linecap="round"/><path d="M232,593 L232,605" fill="none" stroke="currentColor" stroke-width="4" stroke-linecap="round" stroke-linejoin="round" stroke-opacity="0.8"/><path d="M220,605 A12,12 0 0 0 244,605 Z" fill="#e2a12e" stroke="currentColor" stroke-opacity="0.8" stroke-width="3" stroke-linejoin="round" stroke-linecap="round"/>
<g data-zona-toque="" fill="transparent" stroke="none"><rect x="188" y="549" width="200" height="104" rx="14"/></g>
</g>
</g>
<g id="osteocalcina">
<title>Osteocalcina</title>
<desc>Proteína no colágena de la matriz que se une a la hidroxiapatita; aparece en la etapa tardía del osteoblasto.</desc>
<g transform="translate(0 -90)">
<path d="M440,636 l0,20" fill="none" stroke="currentColor" stroke-width="4" stroke-linecap="round" stroke-linejoin="round" stroke-opacity="0.8"/><circle cx="440" cy="636" r="10" fill="#c65ab3" stroke="currentColor" stroke-opacity="0.8" stroke-width="3" stroke-linejoin="round" stroke-linecap="round"/><circle cx="452" cy="640" r="6" fill="#c65ab3" stroke="currentColor" stroke-opacity="0.8" stroke-width="2.5" stroke-linejoin="round" stroke-linecap="round"/><path d="M486,622 l0,20" fill="none" stroke="currentColor" stroke-width="4" stroke-linecap="round" stroke-linejoin="round" stroke-opacity="0.8"/><circle cx="486" cy="622" r="10" fill="#c65ab3" stroke="currentColor" stroke-opacity="0.8" stroke-width="3" stroke-linejoin="round" stroke-linecap="round"/><circle cx="498" cy="626" r="6" fill="#c65ab3" stroke="currentColor" stroke-opacity="0.8" stroke-width="2.5" stroke-linejoin="round" stroke-linecap="round"/><path d="M530,640 l0,20" fill="none" stroke="currentColor" stroke-width="4" stroke-linecap="round" stroke-linejoin="round" stroke-opacity="0.8"/><circle cx="530" cy="640" r="10" fill="#c65ab3" stroke="currentColor" stroke-opacity="0.8" stroke-width="3" stroke-linejoin="round" stroke-linecap="round"/><circle cx="542" cy="644" r="6" fill="#c65ab3" stroke="currentColor" stroke-opacity="0.8" stroke-width="2.5" stroke-linejoin="round" stroke-linecap="round"/><path d="M574,626 l0,20" fill="none" stroke="currentColor" stroke-width="4" stroke-linecap="round" stroke-linejoin="round" stroke-opacity="0.8"/><circle cx="574" cy="626" r="10" fill="#c65ab3" stroke="currentColor" stroke-opacity="0.8" stroke-width="3" stroke-linejoin="round" stroke-linecap="round"/><circle cx="586" cy="630" r="6" fill="#c65ab3" stroke="currentColor" stroke-opacity="0.8" stroke-width="2.5" stroke-linejoin="round" stroke-linecap="round"/><path d="M618,640 l0,20" fill="none" stroke="currentColor" stroke-width="4" stroke-linecap="round" stroke-linejoin="round" stroke-opacity="0.8"/><circle cx="618" cy="640" r="10" fill="#c65ab3" stroke="currentColor" stroke-opacity="0.8" stroke-width="3" stroke-linejoin="round" stroke-linecap="round"/><circle cx="630" cy="644" r="6" fill="#c65ab3" stroke="currentColor" stroke-opacity="0.8" stroke-width="2.5" stroke-linejoin="round" stroke-linecap="round"/><path d="M660,628 l0,20" fill="none" stroke="currentColor" stroke-width="4" stroke-linecap="round" stroke-linejoin="round" stroke-opacity="0.8"/><circle cx="660" cy="628" r="10" fill="#c65ab3" stroke="currentColor" stroke-opacity="0.8" stroke-width="3" stroke-linejoin="round" stroke-linecap="round"/><circle cx="672" cy="632" r="6" fill="#c65ab3" stroke="currentColor" stroke-opacity="0.8" stroke-width="2.5" stroke-linejoin="round" stroke-linecap="round"/><path d="M462,662 l0,20" fill="none" stroke="currentColor" stroke-width="4" stroke-linecap="round" stroke-linejoin="round" stroke-opacity="0.8"/><circle cx="462" cy="662" r="10" fill="#c65ab3" stroke="currentColor" stroke-opacity="0.8" stroke-width="3" stroke-linejoin="round" stroke-linecap="round"/><circle cx="474" cy="666" r="6" fill="#c65ab3" stroke="currentColor" stroke-opacity="0.8" stroke-width="2.5" stroke-linejoin="round" stroke-linecap="round"/>
<g data-zona-toque="" fill="transparent" stroke="none"><rect x="408" y="596" width="300" height="76" rx="14"/></g>
</g>
</g>
<g id="ligandos_rankl_opg">
<title>RANKL y OPG</title>
<desc>El osteoblasto muestra RANKL anclado a su membrana y secreta OPG, un señuelo que captura RANKL; su proporción regula la resorción.</desc>
<g transform="translate(0 -90)">
<path d="M232,228 L232,196" fill="none" stroke="currentColor" stroke-width="5" stroke-linecap="round" stroke-linejoin="round" stroke-opacity="0.8"/><circle cx="222" cy="176" r="12" fill="#e56a94" stroke="currentColor" stroke-opacity="0.8" stroke-width="3" stroke-linejoin="round" stroke-linecap="round"/><circle cx="242" cy="176" r="12" fill="#e56a94" stroke="currentColor" stroke-opacity="0.8" stroke-width="3" stroke-linejoin="round" stroke-linecap="round"/><circle cx="232" cy="158" r="12" fill="#e56a94" stroke="currentColor" stroke-opacity="0.8" stroke-width="3" stroke-linejoin="round" stroke-linecap="round"/><path d="M300,228 L300,196" fill="none" stroke="currentColor" stroke-width="5" stroke-linecap="round" stroke-linejoin="round" stroke-opacity="0.8"/><circle cx="290" cy="176" r="12" fill="#e56a94" stroke="currentColor" stroke-opacity="0.8" stroke-width="3" stroke-linejoin="round" stroke-linecap="round"/><circle cx="310" cy="176" r="12" fill="#e56a94" stroke="currentColor" stroke-opacity="0.8" stroke-width="3" stroke-linejoin="round" stroke-linecap="round"/><circle cx="300" cy="158" r="12" fill="#e56a94" stroke="currentColor" stroke-opacity="0.8" stroke-width="3" stroke-linejoin="round" stroke-linecap="round"/><path d="M368,228 L368,196" fill="none" stroke="currentColor" stroke-width="5" stroke-linecap="round" stroke-linejoin="round" stroke-opacity="0.8"/><circle cx="358" cy="176" r="12" fill="#e56a94" stroke="currentColor" stroke-opacity="0.8" stroke-width="3" stroke-linejoin="round" stroke-linecap="round"/><circle cx="378" cy="176" r="12" fill="#e56a94" stroke="currentColor" stroke-opacity="0.8" stroke-width="3" stroke-linejoin="round" stroke-linecap="round"/><circle cx="368" cy="158" r="12" fill="#e56a94" stroke="currentColor" stroke-opacity="0.8" stroke-width="3" stroke-linejoin="round" stroke-linecap="round"/><path d="M424,198 L430,178 M430,178 L418,156 M430,178 L452,168" fill="none" stroke="#2fa88c" stroke-width="7" stroke-linecap="round" stroke-linejoin="round"/><circle cx="417" cy="152" r="13" fill="#2fa88c" stroke="currentColor" stroke-opacity="0.8" stroke-width="3" stroke-linejoin="round" stroke-linecap="round"/><circle cx="456" cy="166" r="13" fill="#2fa88c" stroke="currentColor" stroke-opacity="0.8" stroke-width="3" stroke-linejoin="round" stroke-linecap="round"/><path d="M500,246 L506,226 M506,226 L494,204 M506,226 L528,216" fill="none" stroke="#2fa88c" stroke-width="7" stroke-linecap="round" stroke-linejoin="round"/><circle cx="493" cy="200" r="13" fill="#2fa88c" stroke="currentColor" stroke-opacity="0.8" stroke-width="3" stroke-linejoin="round" stroke-linecap="round"/><circle cx="532" cy="214" r="13" fill="#2fa88c" stroke="currentColor" stroke-opacity="0.8" stroke-width="3" stroke-linejoin="round" stroke-linecap="round"/>
<g data-zona-toque="" fill="transparent" stroke="none"><rect x="206" y="110" width="340" height="126" rx="20"/></g>
</g>
</g>
<g id="uniones_comunicantes">
<title>Uniones comunicantes</title>
<desc>Canales de conexina 43 entre las membranas de osteoblastos vecinos: dejan pasar iones y moléculas pequeñas y coordinan su actividad.</desc>
<g transform="translate(0 -90)">
<rect x="150" y="329" width="30" height="42" rx="6" fill="#4fae6a" stroke="currentColor" stroke-opacity="0.8" stroke-width="3" stroke-linejoin="round" stroke-linecap="round"/><line x1="150" y1="350" x2="180" y2="350" stroke="#eaf7ee" stroke-width="6"/><circle cx="165" cy="350" r="5" fill="#eaf7ee"/><rect x="150" y="427" width="30" height="42" rx="6" fill="#4fae6a" stroke="currentColor" stroke-opacity="0.8" stroke-width="3" stroke-linejoin="round" stroke-linecap="round"/><line x1="150" y1="448" x2="180" y2="448" stroke="#eaf7ee" stroke-width="6"/><circle cx="165" cy="448" r="5" fill="#eaf7ee"/><rect x="500" y="359" width="30" height="42" rx="6" fill="#4fae6a" stroke="currentColor" stroke-opacity="0.8" stroke-width="3" stroke-linejoin="round" stroke-linecap="round"/><line x1="500" y1="380" x2="530" y2="380" stroke="#eaf7ee" stroke-width="6"/><circle cx="515" cy="380" r="5" fill="#eaf7ee"/><rect x="500" y="449" width="30" height="42" rx="6" fill="#4fae6a" stroke="currentColor" stroke-opacity="0.8" stroke-width="3" stroke-linejoin="round" stroke-linecap="round"/><line x1="500" y1="470" x2="530" y2="470" stroke="#eaf7ee" stroke-width="6"/><circle cx="515" cy="470" r="5" fill="#eaf7ee"/>
<g data-zona-toque="" fill="transparent" stroke="none"><circle cx="165" cy="350" r="56"/><circle cx="165" cy="448" r="56"/><circle cx="515" cy="380" r="56"/><circle cx="515" cy="470" r="56"/></g>
</g>
</g>
<g id="celula_revestimiento">
<title>Célula de revestimiento óseo</title>
<desc>Célula plana y alargada, con poco citoplasma, sobre una superficie ósea sin osteoide; es un osteoblasto en reposo que puede reactivarse.</desc>
<g transform="translate(0 -90)">
<path d="M728,684 C740,650 800,642 860,642 C930,642 972,652 984,684 Z" fill="#a99ee8" stroke="currentColor" stroke-opacity="0.8" stroke-width="4.5" stroke-linejoin="round" stroke-linecap="round"/><ellipse cx="856" cy="664" rx="62" ry="12" fill="#3b2f86" stroke="currentColor" stroke-opacity="0.8" stroke-width="3" stroke-linejoin="round" stroke-linecap="round"/><circle cx="872" cy="662" r="5" fill="#8f86e0"/>
<g data-zona-toque="" fill="transparent" stroke="none"><rect x="716" y="610" width="284" height="78" rx="18"/></g>
</g>
</g>
</svg>
