<svg xmlns="http://www.w3.org/2000/svg" viewBox="0 0 800 600" fill="none" stroke-linejoin="round" stroke-linecap="round" font-family="ui-sans-serif, system-ui, 'Segoe UI', Roboto, 'Helvetica Neue', Arial, sans-serif">
<!-- m6_hueso_normal_osteoporotico. Multicapa (explorar). Dos paneles a la misma escala: arriba, cuerpo vertebral en corte sagital (anterior a la izquierda); abajo, cortical en corte transversal. Izquierda normal, derecha osteoporótico. Esquema sin cifras. -->
<title>Hueso normal y hueso osteoporótico</title>
<desc>Dos paneles a la misma escala. Arriba, un cuerpo vertebral en corte sagital: a la izquierda, normal, con trabéculas verticales y horizontales conectadas; a la derecha, osteoporótico, con trabéculas más finas, sin las horizontales, con dos trabéculas verticales interrumpidas y con aplastamiento en cuña. Abajo, una cortical en corte transversal: a la izquierda, gruesa y con pocos poros; a la derecha, más delgada, con poros grandes, con la cavidad medular más ancha y con el contorno externo algo mayor.</desc>
<g id="fondo_lamina">
<rect x="4" y="4" width="792" height="592" rx="14" fill="#f1edfa" stroke="#2b2350" stroke-width="4"/>
<rect x="44" y="58" width="358" height="242" rx="12" fill="#fbfaff" stroke="#2b2350" stroke-width="2.5"/>
<rect x="422" y="58" width="358" height="242" rx="12" fill="#fbfaff" stroke="#2b2350" stroke-width="2.5"/>
<rect x="44" y="314" width="358" height="272" rx="12" fill="#fbfaff" stroke="#2b2350" stroke-width="2.5"/>
<rect x="422" y="314" width="358" height="272" rx="12" fill="#fbfaff" stroke="#2b2350" stroke-width="2.5"/>
<text x="223" y="42" font-size="30" text-anchor="middle" font-weight="600" fill="#2b2350" stroke="none">Normal</text>
<text x="601" y="42" font-size="30" text-anchor="middle" font-weight="600" fill="#2b2350" stroke="none">Osteoporótico</text>
<text x="30" y="180" font-size="30" text-anchor="middle" font-weight="600" transform="rotate(-90 30 180)" fill="#2b2350" stroke="none">Vértebra</text>
<text x="30" y="450" font-size="30" text-anchor="middle" font-weight="600" transform="rotate(-90 30 450)" fill="#2b2350" stroke="none">Cortical</text>
</g>
<g id="trabeculas_normales">
<path d="M142 92H304Q318 92 318 106V238Q318 252 304 252H142Q128 252 128 238V106Q128 92 142 92Z" fill="#e2d9f5" stroke="#2b2350" stroke-width="12"/>
<path d="M142 92H304Q318 92 318 106V238Q318 252 304 252H142Q128 252 128 238V106Q128 92 142 92Z" stroke="#d98aa2" stroke-width="6"/>
<g stroke="#2b2350" stroke-width="12">
<path d="M148 100Q144 172 150 244M174 100Q178 170 172 244M201 100Q198 174 203 244M228 100Q232 172 226 244M255 100Q251 170 257 244M282 100Q286 176 280 244M304 100Q300 172 303 244"/>
<path d="M149 128Q162 122 175 126M150 192Q162 186 173 190M174 158Q188 164 201 156M172 218Q188 212 202 216M202 126Q215 120 228 128M202 186Q216 192 228 184M203 240Q215 234 226 238M228 156Q242 162 255 154M226 214Q242 208 257 214M256 128Q270 122 282 130M257 190Q270 196 282 188M280 158Q292 164 304 156M280 220Q292 214 303 218"/>
</g>
<g stroke="#d98aa2" stroke-width="7">
<path d="M148 100Q144 172 150 244M174 100Q178 170 172 244M201 100Q198 174 203 244M228 100Q232 172 226 244M255 100Q251 170 257 244M282 100Q286 176 280 244M304 100Q300 172 303 244"/>
<path d="M149 128Q162 122 175 126M150 192Q162 186 173 190M174 158Q188 164 201 156M172 218Q188 212 202 216M202 126Q215 120 228 128M202 186Q216 192 228 184M203 240Q215 234 226 238M228 156Q242 162 255 154M226 214Q242 208 257 214M256 128Q270 122 282 130M257 190Q270 196 282 188M280 158Q292 164 304 156M280 220Q292 214 303 218"/>
</g>
</g>
<g id="colapso_vertebral">
<path d="M506 92H696V252H506Z" stroke="#2b2350" stroke-width="3" stroke-dasharray="10 8" opacity="0.7"/>
<path d="M506 150Q506 142 516 140L682 94Q696 91 696 106V238Q696 252 682 252H520Q506 252 506 238Z" fill="#e2d9f5" stroke="#2b2350" stroke-width="12"/>
<path d="M506 150Q506 142 516 140L682 94Q696 91 696 106V238Q696 252 682 252H520Q506 252 506 238Z" stroke="#d98aa2" stroke-width="6"/>
<path d="M526 100V128" stroke="#2b2350" stroke-width="6"/>
<path d="M526 138L512 118H540Z" fill="#b8302f" stroke="#2b2350" stroke-width="4"/>
</g>
<g id="trabeculas_osteoporoticas">
<g stroke="#2b2350" stroke-width="9">
<path d="M526 152Q522 200 528 244M566 140Q569 165 567 184M567 208Q568 226 564 244M606 130Q602 190 608 244M650 118Q653 146 651 170M649 200Q650 222 648 244M686 108Q690 170 684 244"/>
<path d="M528 224Q546 218 565 222M608 226Q628 220 649 224"/>
</g>
<g stroke="#d98aa2" stroke-width="4.5">
<path d="M526 152Q522 200 528 244M566 140Q569 165 567 184M567 208Q568 226 564 244M606 130Q602 190 608 244M650 118Q653 146 651 170M649 200Q650 222 648 244M686 108Q690 170 684 244"/>
<path d="M528 224Q546 218 565 222M608 226Q628 220 649 224"/>
</g>
</g>
<g id="perforacion_trabecular">
<circle cx="566" cy="196" r="22" stroke="#e58c3c" stroke-width="6" stroke-dasharray="9 6"/>
<circle cx="650" cy="185" r="22" stroke="#e58c3c" stroke-width="6" stroke-dasharray="9 6"/>
<path d="M558 186L575 182M560 208L574 212M642 172L660 176M641 196L658 192" stroke="#2b2350" stroke-width="4"/>
</g>
<g id="cortical_normal">
<circle cx="223" cy="452" r="54" fill="#e2d9f5"/>
<path d="M223 348A104 104 0 1 0 223 556A104 104 0 1 0 223 348ZM223 396A56 56 0 1 1 223 508A56 56 0 1 1 223 396Z" fill="#d98aa2" fill-rule="evenodd" stroke="#2b2350" stroke-width="5"/>
<path d="M223 366A86 86 0 0 1 300 414M164 388A86 86 0 0 0 138 452" stroke="#b0607d" stroke-width="3" opacity="0.6"/>
<circle cx="296" cy="484" r="5" fill="#f1edfa" stroke="#2b2350" stroke-width="2.5"/>
<circle cx="236" cy="533" r="5" fill="#f1edfa" stroke="#2b2350" stroke-width="2.5"/>
<circle cx="160" cy="506" r="5" fill="#f1edfa" stroke="#2b2350" stroke-width="2.5"/>
<circle cx="148" cy="418" r="5" fill="#f1edfa" stroke="#2b2350" stroke-width="2.5"/>
<circle cx="290" cy="410" r="5" fill="#f1edfa" stroke="#2b2350" stroke-width="2.5"/>
</g>
<g id="cortical_adelgazada">
<path d="M601 340A112 112 0 1 0 601 564A112 112 0 1 0 601 340ZM601 368A84 84 0 1 1 601 536A84 84 0 1 1 601 368Z" fill="#d98aa2" fill-rule="evenodd" stroke="#2b2350" stroke-width="5"/>
</g>
<g id="cavidad_medular_ampliada">
<circle cx="601" cy="452" r="81" fill="#e2d9f5" stroke="#2b2350" stroke-width="3" stroke-dasharray="8 6"/>
<circle cx="572" cy="432" r="15" fill="#f3e39a" stroke="#2b2350" stroke-width="3"/>
<circle cx="628" cy="470" r="17" fill="#f3e39a" stroke="#2b2350" stroke-width="3"/>
<circle cx="586" cy="490" r="13" fill="#f3e39a" stroke="#2b2350" stroke-width="3"/>
<circle cx="626" cy="422" r="12" fill="#f3e39a" stroke="#2b2350" stroke-width="3"/>
</g>
<g id="porosidad_cortical">
<ellipse cx="601" cy="355" rx="9" ry="7" fill="#f1edfa" stroke="#2b2350" stroke-width="3"/>
<ellipse cx="667" cy="372" rx="11" ry="9" fill="#f1edfa" stroke="#2b2350" stroke-width="3"/>
<ellipse cx="696" cy="440" rx="8" ry="10" fill="#f1edfa" stroke="#2b2350" stroke-width="3"/>
<ellipse cx="690" cy="500" rx="12" ry="9" fill="#f1edfa" stroke="#2b2350" stroke-width="3"/>
<ellipse cx="640" cy="542" rx="10" ry="8" fill="#f1edfa" stroke="#2b2350" stroke-width="3"/>
<ellipse cx="572" cy="548" rx="12" ry="8" fill="#f1edfa" stroke="#2b2350" stroke-width="3"/>
<ellipse cx="522" cy="520" rx="9" ry="11" fill="#f1edfa" stroke="#2b2350" stroke-width="3"/>
<ellipse cx="504" cy="458" rx="11" ry="8" fill="#f1edfa" stroke="#2b2350" stroke-width="3"/>
<ellipse cx="520" cy="392" rx="10" ry="9" fill="#f1edfa" stroke="#2b2350" stroke-width="3"/>
<ellipse cx="558" cy="360" rx="8" ry="8" fill="#f1edfa" stroke="#2b2350" stroke-width="3"/>
<ellipse cx="516" cy="440" rx="7" ry="6" fill="#f1edfa" stroke="#2b2350" stroke-width="2.5"/>
<ellipse cx="682" cy="392" rx="7" ry="6" fill="#f1edfa" stroke="#2b2350" stroke-width="2.5"/>
</g>
</svg>
